<?xml version="1.0" encoding="iso-8859-1"?>
<!-- Generator: Adobe Illustrator 19.0.0, SVG Export Plug-In . SVG Version: 6.00 Build 0)  -->
<svg version="1.1" id="Capa_1" xmlns="http://www.w3.org/2000/svg" xmlns:xlink="http://www.w3.org/1999/xlink" x="0px" y="0px"
	 viewBox="0 0 491.52 491.52" style="enable-background:new 0 0 491.52 491.52;" xml:space="preserve">
<circle style="fill:#E05B49;" cx="245.76" cy="245.76" r="245.76"/>
<path style="fill:#FCD462;" d="M379.345,228.08l-193.97,59.06l-25.691-139.959H376.86c5.358,0,9.7,4.343,9.7,9.7v61.822
	C386.56,223.104,383.599,226.953,379.345,228.08z"/>
<path style="fill:#64798A;" d="M378.113,330.265H210.118c-11.998,0-22.458-8.117-25.432-19.74l-0.12-0.548l-33.796-181.309
	c-1.138-4.025-4.809-6.814-9.008-6.814h-28.356c-4.665,0-8.447-3.782-8.447-8.447c0-4.665,3.782-8.447,8.447-8.447h28.356
	c11.994,0,22.454,8.117,25.436,19.74l0.119,0.552l33.797,181.309c1.138,4.021,4.805,6.81,9.004,6.81h167.995
	c4.665,0,8.447,3.782,8.447,8.447C386.56,326.482,382.778,330.265,378.113,330.265z"/>
<g>
	<polygon style="fill:#F6C358;" points="209.545,162.543 209.545,263.728 214.351,262.264 214.351,162.543 	"/>
	<polygon style="fill:#F6C358;" points="238.708,162.543 238.708,254.849 243.514,253.385 243.514,162.543 	"/>
	<polygon style="fill:#F6C358;" points="267.87,162.543 267.87,245.97 272.675,244.506 272.675,162.543 	"/>
	<polygon style="fill:#F6C358;" points="297.033,162.543 297.033,237.09 301.837,235.628 301.837,162.543 	"/>
	<polygon style="fill:#F6C358;" points="326.194,162.543 326.194,228.211 331,226.748 331,162.543 	"/>
	<polygon style="fill:#F6C358;" points="355.356,162.543 355.356,219.333 360.162,217.869 360.162,162.543 	"/>
</g>
<path style="fill:#2F4859;" d="M235.192,335.266c-14.165,0-25.647,11.482-25.647,25.647s11.482,25.647,25.647,25.647
	c14.164,0,25.647-11.483,25.647-25.647S249.356,335.266,235.192,335.266z M235.192,377.912c-9.389,0-17-7.61-17-16.999
	c0-9.389,7.611-17,17-17c9.389,0,17,7.611,17,17C252.192,370.302,244.581,377.912,235.192,377.912z"/>
<path style="fill:#3A556A;" d="M235.192,343.913c-9.389,0-17,7.611-17,17c0,9.389,7.611,16.999,17,16.999c9.389,0,17-7.61,17-16.999
	C252.192,351.524,244.581,343.913,235.192,343.913z M235.192,367.299c-3.527,0-6.386-2.858-6.386-6.386
	c0-3.527,2.859-6.386,6.386-6.386c3.527,0,6.385,2.859,6.385,6.386C241.577,364.44,238.719,367.299,235.192,367.299z"/>
<g>
	<circle style="fill:#2F4859;" cx="235.192" cy="360.909" r="6.385"/>
	<path style="fill:#2F4859;" d="M349.049,335.266c-14.165,0-25.648,11.482-25.648,25.647s11.483,25.647,25.648,25.647
		c14.164,0,25.646-11.483,25.646-25.647S363.213,335.266,349.049,335.266z M349.049,377.912c-9.389,0-17-7.61-17-16.999
		c0-9.389,7.611-17,17-17c9.389,0,17,7.611,17,17C366.049,370.302,358.438,377.912,349.049,377.912z"/>
</g>
<path style="fill:#3A556A;" d="M349.049,343.913c-9.389,0-17,7.611-17,17c0,9.389,7.611,16.999,17,16.999c9.389,0,17-7.61,17-16.999
	C366.049,351.524,358.438,343.913,349.049,343.913z M349.049,367.299c-3.528,0-6.387-2.858-6.387-6.386
	c0-3.527,2.859-6.386,6.387-6.386c3.526,0,6.385,2.859,6.385,6.386C355.434,364.44,352.575,367.299,349.049,367.299z"/>
<circle style="fill:#2F4859;" cx="349.03" cy="360.909" r="6.385"/>
<g>
</g>
<g>
</g>
<g>
</g>
<g>
</g>
<g>
</g>
<g>
</g>
<g>
</g>
<g>
</g>
<g>
</g>
<g>
</g>
<g>
</g>
<g>
</g>
<g>
</g>
<g>
</g>
<g>
</g>
</svg>
