<?xml version="1.0" encoding="utf-8"?>
<!-- Generator: Adobe Illustrator 21.0.0, SVG Export Plug-In . SVG Version: 6.00 Build 0)  -->
<svg version="1.1" id="Layer_1" xmlns="http://www.w3.org/2000/svg" xmlns:xlink="http://www.w3.org/1999/xlink" x="0px" y="0px"
	 width="1000px" height="432px" viewBox="0 0 1000 432" style="enable-background:new 0 0 1000 432;" xml:space="preserve">
<style type="text/css">
	.st0{fill:#859115;}
	.st1{fill:#A8B71A;}
	.st2{fill:#697A00;}
	.st3{fill:#7E9300;}
	.st4{fill:#737F00;}
	.st5{fill:#586100;}
	.st6{fill:#B8C438;}
	.st7{fill:#D9E842;}
	.st8{fill:#285C00;}
	.st9{fill:#447A14;}
	.st10{fill:#4F8E17;}
	.st11{fill:#367C00;}
	.st12{opacity:0.58;}
	.st13{fill:#FFFFFF;}
	.st14{fill:#7F2400;}
	.st15{fill:#EF4351;}
	.st16{fill:#F76375;}
	.st17{fill:#FFACA1;}
	.st18{fill:#89B426;}
	.st19{fill:#6D9F1C;}
	.st20{fill:#BADB2C;}
	.st21{fill:#91C422;}
	.st22{fill:#CBEA68;}
	.st23{fill:#9BC33E;}
	.st24{fill:#81AA1E;}
	.st25{fill:#6E9E16;}
	.st26{fill:#97C956;}
	.st27{fill:#F2F4CD;}
	.st28{fill:#CBE783;}
	.st29{fill:#E9EAC2;}
	.st30{fill:#B4E140;}
	.st31{fill:#A1CD2E;}
	.st32{fill:#AAD12F;}
	.st33{fill:#FFB864;}
	.st34{fill:#FFD8AE;}
	.st35{fill:#364469;}
	.st36{clip-path:url(#SVGID_2_);fill:#FFFFFF;}
	.st37{fill:#254553;}
	.st38{fill:#EDEDED;}
	.st39{fill:#E3E7E8;}
	.st40{fill:#D66DF7;}
	.st41{fill:#F1C40F;}
	.st42{fill:#E577AE;}
	.st43{fill:#7F8C8D;}
	.st44{fill:#34495E;}
	.st45{fill:#1D2A36;}
	.st46{fill:#FFC81B;}
	.st47{fill:#FCD56B;}
	.st48{fill:#C2EFFF;}
	.st49{fill:#E67E22;}
	.st50{fill:#D35400;}
	.st51{fill:#8A3700;}
	.st52{fill:#F39C12;}
	.st53{fill:#186B3B;}
	.st54{fill:#1F8C4D;}
	.st55{fill:#1DA155;}
	.st56{fill:#27AE60;}
	.st57{opacity:0.7;fill:#8D734E;}
	.st58{fill:#59F79D;}
	.st59{opacity:0.3;fill:#ECF0F1;}
	.st60{fill:#E74C3C;}
	.st61{fill:#C0392B;}
	.st62{fill:#522100;}
	.st63{fill:#FF8073;}
	.st64{fill:#117D68;}
	.st65{fill:#0E6957;}
	.st66{fill:#6E2119;}
	.st67{fill:#1ABC9C;}
	.st68{fill:#FFDD57;}
	.st69{fill:#912C21;}
	.st70{fill:#F1DF98;}
	.st71{fill:#95A5A6;}
	.st72{fill:#E1E5E6;}
	.st73{fill:#BDC3C7;}
	.st74{fill:#D7DDE3;}
	.st75{fill:#ECF0F1;}
	.st76{fill:#1B7842;}
	.st77{fill:#D1AB6D;}
	.st78{fill:#562969;}
	.st79{fill:#9B59B6;}
	.st80{fill:#2ECC71;}
	.st81{fill:#12826C;}
	.st82{fill:#16A085;}
	.st83{fill:#E8F1C6;}
	.st84{fill:#35EB82;}
	.st85{fill:#9E2F23;}
	.st86{fill:#0A2138;}
	.st87{fill:#05101C;}
	.st88{fill:#283549;}
	.st89{fill:#F7C378;}
	.st90{fill:#FDDDBA;}
	.st91{fill:#2E384C;}
	.st92{fill:#DB659B;}
	.st93{fill:#FCCA9B;}
	.st94{fill:#FFD0B0;}
</style>
<g>
	<g>
		<g>
			<g>
				<g>
					<path class="st0" d="M682.2,142.6v9.8l0,0c2.3,0,4.4,0.4,5.8,1.1c-0.9-1.6-1.4-3.3-1.4-5.1l-0.2-6.3
						C685.4,142.4,683.9,142.6,682.2,142.6L682.2,142.6z"/>
				</g>
			</g>
			<g>
				<g>
					<path class="st1" d="M682.2,142.6c-1.7,0-3.2-0.2-4.2-0.6l-0.2,6.3c-0.1,1.8-0.6,3.6-1.4,5.1c1.4-0.6,3.5-1.1,5.8-1.1V142.6z"
						/>
				</g>
			</g>
			<g>
				<g>
					<path class="st2" d="M682.2,158.2L682.2,158.2V199c5.5,0,9.3-1.6,9.3-2.9c0-0.1,0-0.3-0.1-0.4l-0.2-0.3l0.3-0.2
						c2.1-1.4,3.3-3.8,3.3-6.3v-25.2c0-2.5-1.2-4.8-3.2-6.2c-0.7-0.5-1.3-1-1.9-1.6C689.2,157.2,686,158.2,682.2,158.2z"/>
				</g>
			</g>
			<g>
				<g>
					<path class="st3" d="M674.7,155.7c-0.6,0.6-1.2,1.2-1.9,1.6c-2,1.4-3.2,3.8-3.2,6.2v25.2c0,2.5,1.2,4.9,3.3,6.3l0.3,0.2
						l-0.2,0.3c-0.1,0.2-0.1,0.3-0.1,0.4c0,1.4,3.8,2.9,9.3,2.9v-40.8C678.4,158.2,675.2,157.2,674.7,155.7z"/>
				</g>
			</g>
			<g>
				<g>
					<path class="st4" d="M682.2,158.2v-5.9c-2.3,0-4.4,0.4-5.8,1.1c-0.5,0.8-1,1.6-1.7,2.3C675.2,157.2,678.4,158.2,682.2,158.2z"
						/>
				</g>
			</g>
			<g>
				<g>
					<path class="st5" d="M682.2,152.4v5.9l0,0c3.8,0,7-1.1,7.5-2.5c-0.7-0.7-1.2-1.5-1.7-2.3C686.6,152.8,684.5,152.4,682.2,152.4
						L682.2,152.4z"/>
				</g>
			</g>
			<g>
				<g>
					<path class="st6" d="M692,156.8c-2.9-2-4.6-5.1-4.7-8.5l-0.2-6.6c-0.1,0.1-0.2,0.1-0.4,0.2c-0.1,0.1-0.2,0.1-0.4,0.1l0.2,6.3
						c0.1,1.8,0.6,3.6,1.4,5.1c0.5,0.8,1,1.6,1.7,2.3c0.6,0.6,1.2,1.2,1.9,1.6c2,1.4,3.2,3.8,3.2,6.2v25.2c0,2.5-1.2,4.9-3.3,6.3
						l-0.3,0.2l0.2,0.3c0.1,0.2,0.1,0.3,0.1,0.4c0,1.4-3.8,2.9-9.3,2.9v0.4v0.4c4.9,0,10.1-1.3,10.1-3.7c0-0.1,0-0.3-0.1-0.4
						c2.1-1.6,3.4-4.1,3.4-6.7v-25.2C695.6,160.9,694.3,158.3,692,156.8z"/>
				</g>
			</g>
			<g>
				<g>
					<path class="st7" d="M682.2,199c-5.5,0-9.3-1.6-9.3-2.9c0-0.1,0-0.3,0.1-0.4l0.2-0.3l-0.3-0.2c-2.1-1.4-3.3-3.8-3.3-6.3v-25.2
						c0-2.5,1.2-4.8,3.2-6.2c0.7-0.5,1.3-1,1.9-1.6c0.7-0.7,1.2-1.5,1.7-2.3c0.9-1.6,1.4-3.3,1.4-5.1l0.2-6.3
						c-0.1,0-0.3-0.1-0.4-0.1c-0.1-0.1-0.3-0.1-0.4-0.2l-0.2,6.6c-0.1,3.4-1.8,6.4-4.7,8.5c-2.2,1.6-3.6,4.1-3.6,6.9v25.2
						c0,2.7,1.3,5.1,3.4,6.7c0,0.2-0.1,0.3-0.1,0.4c0,2.4,5.2,3.7,10.1,3.7v-0.4V199z"/>
				</g>
			</g>
			<g>
				<g>
					<path class="st8" d="M682.2,135.1L682.2,135.1v4v0.2v0.2v0.4v1.1v1.7l0,0c1.7,0,3.2-0.2,4.2-0.6c0.1,0,0.3-0.1,0.4-0.1
						c0.1-0.1,0.3-0.1,0.4-0.2c0.4-0.2,0.6-0.5,0.6-0.7v-7.5C687.7,134.3,685.2,135.1,682.2,135.1z"/>
				</g>
			</g>
			<g>
				<g>
					<path class="st9" d="M682.2,135.1L682.2,135.1c3,0,5.5-0.7,5.5-1.7c0-0.9-2.5-1.7-5.5-1.7l0,0v1.7V135.1z"/>
				</g>
			</g>
			<g>
				<g>
					<path class="st10" d="M682.2,135.1v-1.7v-1.7c-3,0-5.5,0.7-5.5,1.7C676.7,134.3,679.1,135.1,682.2,135.1z"/>
				</g>
			</g>
			<g>
				<g>
					<path class="st11" d="M678,142c1,0.4,2.5,0.6,4.2,0.6v-1.7v-1.1v-0.4v-0.2v-0.2v-4c-3,0-5.5-0.7-5.5-1.7v7.5
						c0,0.3,0.2,0.5,0.6,0.7c0.1,0.1,0.2,0.1,0.4,0.2C677.7,141.9,677.9,142,678,142z"/>
				</g>
			</g>
		</g>
		<g class="st12">
			<g>
				<path class="st13" d="M674.7,175.9L674.7,175.9c-0.5,0-1-0.3-1-0.7v-11.3c0-0.4,0.4-0.7,1-0.7h0c0.5,0,1,0.3,1,0.7v11.3
					C675.6,175.6,675.2,175.9,674.7,175.9z"/>
			</g>
		</g>
	</g>
	<g>
		<g>
			<g>
				<path class="st14" d="M696.2,157.9c-0.4-4.2,0.4-6.1,1.2-7c0.7-0.8,1.4-0.8,1.4-0.8l0,0.6l0-0.3l0,0.3c0,0-0.5,0-1,0.6
					c-0.7,0.8-1.4,2.5-1,6.5L696.2,157.9z"/>
			</g>
		</g>
		<g>
			<g>
				<g>
					<g>
						<path class="st15" d="M700.5,155.8c-1.1,0.2-3.9,0.5-3.9,0.5v24.5h2.8c4.1,0,7.5-3,8-7.1l1.1-8.8
							C709.1,160,705.2,154.7,700.5,155.8z"/>
					</g>
				</g>
			</g>
			<g>
				<g>
					<g>
						<path class="st16" d="M692.6,155.8c-4.7-1-8.6,4.3-8,9.1l1.1,8.8c0.5,4,3.9,7.1,8,7.1h2.8v-24.5
							C696.5,156.3,693.7,156,692.6,155.8z"/>
					</g>
				</g>
			</g>
		</g>
		<g>
			<g>
				<g>
					<path class="st17" d="M689.6,166.6L689.6,166.6c-1.4-0.3-2.3-1.4-2.4-2.7l0-0.1c-0.1-2.4,1.2-4.6,3.5-5.6l0.1,0
						c0.7-0.3,1.5,0.2,1.5,1v5.3C692.2,165.8,690.9,166.9,689.6,166.6z"/>
				</g>
			</g>
		</g>
	</g>
	<g>
		<g>
			<g>
				<g>
					<g>
						<g>
							<polygon class="st18" points="707.9,192.4 713.3,157.4 716.2,150.6 717.6,146.6 716.6,146.4 713.1,155.2 712.4,157.5 
								710.2,151.5 713.9,145.8 713.6,145.3 709.8,150.5 709,145.1 707.8,145.4 709.4,152.3 710.7,157.9 703.2,184.7 							"/>
						</g>
					</g>
				</g>
				<g>
					<g>
						<g>
							<polygon class="st19" points="708.7,192.6 717.9,158.4 718,151 718.4,146.8 719.3,147 719,156.4 718.7,158.8 723.1,154.2 
								722,147.6 722.6,147.3 723.9,153.5 727.1,149.4 727.8,149.7 723.5,155.3 720.1,159.9 716.1,187.4 							"/>
						</g>
					</g>
				</g>
			</g>
			<g>
				<g>
					<g>
						<path class="st20" d="M717.8,147l0.5,0.1c3.2,0.7,7.2-0.9,7.8-3.8l0.3-1.4l-2.7-0.6c-2-0.4-3,0.6-4.2,2.5L717.8,147z"/>
					</g>
				</g>
				<g>
					<g>
						<path class="st20" d="M717.8,147l-0.5-0.1c-3.2-0.7-6.2-3.8-5.6-6.7l0.3-1.4l2.7,0.6c2,0.4,2.5,1.8,2.9,4L717.8,147z"/>
					</g>
				</g>
				<g>
					<g>
						
							<rect x="714.3" y="147.8" transform="matrix(0.2069 -0.9784 0.9784 0.2069 424.1873 819.5894)" class="st20" width="6.6" height="0.7"/>
					</g>
				</g>
			</g>
			<g>
				<g>
					<g>
						<g>
							<path class="st20" d="M704.9,145.3l0.4-0.3c2.5-2.1,3.9-5.9,2.4-7.7l-0.7-0.9l-2.1,1.8c-1.5,1.3-1.5,2.6-1,4.4L704.9,145.3z"
								/>
						</g>
					</g>
					<g>
						<g>
							<g>
								<path class="st21" d="M704.9,145.3l-0.4,0.3c-2.5,2.1-6.4,3-8,1.2l-0.7-0.9l2.1-1.8c1.5-1.3,2.8-1.1,4.5-0.3L704.9,145.3z"
									/>
							</g>
						</g>
					</g>
					<g>
						<g>
							<g>
								<path class="st21" d="M703.9,141.6l0.4,3l-2.9-0.9c-2.1-0.6-3.5-2.3-3.8-4.5l-0.4-3l2.9,0.9
									C702.1,137.8,703.6,139.5,703.9,141.6z"/>
							</g>
						</g>
					</g>
					<g>
						<g>
							<g>
								
									<rect x="705.2" y="143.4" transform="matrix(0.7605 -0.6493 0.6493 0.7605 74.0999 493.0878)" class="st22" width="0.7" height="5.3"/>
							</g>
						</g>
					</g>
				</g>
				<g>
					<g>
						<g>
							<path class="st20" d="M707.4,144.4l0.5,0c3.2,0.2,7-2,7.2-5l0.1-1.4l-2.8-0.2c-2-0.1-2.9,1-3.8,3.1L707.4,144.4z"/>
						</g>
					</g>
					<g>
						<g>
							<path class="st20" d="M707.4,144.4l-0.5,0c-3.2-0.2-6.6-2.9-6.4-5.9l0.1-1.4l2.8,0.2c2,0.1,2.7,1.4,3.4,3.6L707.4,144.4z"/>
						</g>
					</g>
					<g>
						<g>
							<path class="st20" d="M709.3,140.1l-1.8,3.1l-1.4-3.3c-1-2.4-0.8-5.3,0.5-7.5l1.8-3.1l1.4,3.3
								C710.8,135,710.6,137.9,709.3,140.1z"/>
						</g>
					</g>
					<g>
						<g>
							<g>
								
									<rect x="703.9" y="145.3" transform="matrix(7.038777e-02 -0.9975 0.9975 7.038777e-02 512.2369 840.9219)" class="st22" width="6.7" height="0.7"/>
							</g>
						</g>
					</g>
				</g>
				<g>
					<g>
						<g>
							<path class="st20" d="M713.7,146l0.5,0c3.2-0.2,6.7-2.6,6.5-5.3l-0.1-1.3l-2.8,0.2c-2,0.1-2.7,1.3-3.4,3.2L713.7,146z"/>
						</g>
					</g>
					<g>
						<g>
							<path class="st20" d="M713.7,146l-0.5,0c-3.2,0.2-7-1.8-7.1-4.5l-0.1-1.3l2.8-0.2c2-0.1,2.9,0.9,3.8,2.8L713.7,146z"/>
						</g>
					</g>
					<g>
						<g>
							<g>
								<path class="st21" d="M715.1,142l-1.5,2.9l-1.8-2.7c-1.3-2-1.4-4.6-0.4-6.7l1.4-2.9l1.8,2.7
									C716,137.3,716.1,139.9,715.1,142z"/>
							</g>
						</g>
					</g>
					<g>
						<g>
							
								<rect x="713.4" y="144.1" transform="matrix(0.9983 -5.848673e-02 5.848673e-02 0.9983 -7.3835 41.9966)" class="st20" width="0.7" height="6"/>
						</g>
					</g>
				</g>
				<g>
					<g>
						<g>
							<path class="st20" d="M715.4,147.6l0.5,0.2c3,1.3,6.9,1.2,7.8-0.7l0.4-0.9l-2.5-1.1c-1.8-0.8-2.9-0.4-4.3,0.7L715.4,147.6z"
								/>
						</g>
					</g>
					<g>
						<g>
							<path class="st20" d="M715.4,147.6l-0.5-0.2c-3-1.3-5.5-4.4-4.7-6.3l0.4-0.9l2.5,1.1c1.8,0.8,2.2,1.9,2.3,3.6L715.4,147.6z"
								/>
						</g>
					</g>
					<g>
						<g>
							<path class="st20" d="M718.2,145.4l-2.4,1.4l-0.6-2.7c-0.4-1.9,0.4-3.8,2.1-4.8l2.4-1.4l0.6,2.7
								C720.7,142.6,719.9,144.4,718.2,145.4z"/>
						</g>
					</g>
					<g>
						<g>
							<polygon class="st20" points="714.5,150.6 716.4,146.4 715.7,146.1 713.8,150.3 							"/>
						</g>
					</g>
				</g>
				<g>
					<g>
						<g>
							
								<rect x="709.8" y="144.1" transform="matrix(0.9824 -0.1868 0.1868 0.9824 -14.8213 135.2225)" class="st20" width="0.7" height="4.4"/>
						</g>
					</g>
				</g>
			</g>
			<g>
				<g>
					<g>
						<g>
							<g>
								<path class="st23" d="M730.5,150.7l0.2,0.5c1.4,2.9,4.7,5.3,6.8,4.3l1-0.5l-1.2-2.5c-0.9-1.8-2.1-2.1-4-2.1L730.5,150.7z"/>
							</g>
						</g>
					</g>
					<g>
						<g>
							<path class="st20" d="M730.5,150.7l-0.2-0.5c-1.4-2.9-1.2-7,0.9-8l1-0.5l1.2,2.5c0.9,1.8,0.3,2.9-0.8,4.4L730.5,150.7z"/>
						</g>
					</g>
					<g>
						<g>
							<g>
								<path class="st23" d="M734.3,150.7l-3-0.4l1.6-2.5c1.1-1.8,3.2-2.8,5.3-2.6l3,0.4l-1.6,2.5C738.5,150,736.5,151,734.3,150.7
									z"/>
							</g>
						</g>
					</g>
					<g>
						<g>
							<g>
								
									<rect x="726.9" y="150.8" transform="matrix(0.9013 -0.4332 0.4332 0.9013 6.5251 330.9791)" class="st24" width="5.3" height="0.7"/>
							</g>
						</g>
					</g>
				</g>
				<g>
					<g>
						<g>
							<g>
								<path class="st25" d="M728.6,148.9l0.5,0.2c3,1.1,7.3,0,8.3-2.8l0.5-1.3l-2.6-0.9c-1.9-0.7-3.1,0.2-4.5,2L728.6,148.9z"/>
							</g>
						</g>
					</g>
					<g>
						<g>
							<path class="st20" d="M728.6,148.9l-0.5-0.2c-3-1.1-5.6-4.6-4.6-7.5l0.5-1.3l2.6,0.9c1.9,0.7,2.2,2.1,2.3,4.4L728.6,148.9z"
								/>
						</g>
					</g>
					<g>
						<g>
							<g>
								<path class="st25" d="M731.6,145.2l-2.6,2.4l-0.4-3.5c-0.3-2.6,0.7-5.3,2.5-7.1l2.6-2.4l0.4,3.5
									C734.5,140.7,733.5,143.5,731.6,145.2z"/>
							</g>
						</g>
					</g>
					<g>
						<g>
							<g>
								
									<rect x="724.8" y="149.7" transform="matrix(0.3387 -0.9409 0.9409 0.3387 340.3769 784.3498)" class="st24" width="6.7" height="0.7"/>
							</g>
						</g>
					</g>
				</g>
				<g>
					<g>
						<g>
							<path class="st20" d="M722.2,147.8l0.5,0.2c2.9,1.5,7.1,1.2,8.3-1.2l0.6-1.1l-2.5-1.3c-1.8-0.9-3-0.3-4.6,1L722.2,147.8z"/>
						</g>
					</g>
					<g>
						<g>
							<path class="st20" d="M722.2,147.8l-0.5-0.2c-2.9-1.5-5.1-5.1-3.8-7.5l0.6-1.1l2.5,1.3c1.8,0.9,2,2.3,1.8,4.3L722.2,147.8z"
								/>
						</g>
					</g>
					<g>
						<g>
							<g>
								<path class="st26" d="M725.4,145l-2.7,1.8l-0.1-3.3c-0.1-2.4,1.1-4.7,3.1-6l2.7-1.8l0.1,3.3
									C728.6,141.5,727.4,143.7,725.4,145z"/>
							</g>
						</g>
					</g>
					<g>
						<g>
							<polygon class="st20" points="720.3,151.9 723.3,146.3 722.7,146 720,151.3 							"/>
						</g>
					</g>
				</g>
				<g>
					<g>
						<g>
							<g>
								<path class="st26" d="M719.9,148.5l0.5,0c3.2,0,6.8-1.7,6.8-3.9l0-1l-2.8,0c-2,0-2.8,0.9-3.6,2.4L719.9,148.5z"/>
							</g>
						</g>
					</g>
					<g>
						<g>
							<path class="st20" d="M719.9,148.5l-0.5,0c-3.2,0-6.8-1.7-6.9-3.8l0-1l2.8,0c2,0,2.8,0.8,3.6,2.3L719.9,148.5z"/>
						</g>
					</g>
					<g>
						<g>
							<path class="st20" d="M721.5,145.4l-1.6,2.2l-1.6-2.2c-1.2-1.6-1.2-3.6,0-5.2l1.6-2.2l1.6,2.2
								C722.7,141.8,722.7,143.8,721.5,145.4z"/>
						</g>
					</g>
				</g>
			</g>
		</g>
		<g>
			<g>
				<g>
					<path class="st22" d="M703.8,186.4l1.3-2.1c-0.2-5.3,5.3-24.7,5.3-24.7l2.1-4.4l-0.7-1.9l-1.8,3.6l-2.6-9.4l-1.4-0.3l2.2,8.6
						l-7.6,25.2c0,0-0.8,2.2-0.8,4.6c1,0.1,1.3-0.7,2.4-0.5C703.2,185.4,703.2,186.1,703.8,186.4z"/>
				</g>
			</g>
			<g>
				<g>
					<path class="st27" d="M703,187.8l0.8-1.3c-0.7-0.4-0.7-1.1-1.6-1.3c-1.1-0.2-1.3,0.6-2.4,0.5c-0.1,2.5,0.6,5.1,3.7,5.8
						c3.3,0.7,4.5,0.9,4.8,1c0,0-2.2-1.5-3.4-2.7C703.6,188.7,703,187.8,703,187.8z"/>
				</g>
			</g>
			<g>
				<g>
					<polygon class="st20" points="713.5,149.7 712.3,152.3 713,154.2 715.1,149.2 					"/>
				</g>
			</g>
			<g>
				<g>
					<path class="st28" d="M713.7,158.6l-5.7,21.2l-2.8,4.5c0,0.1,0,0.2,0,0.3c0.1,0.6,0.2,1.2,0.3,1.8c0.4-0.2,0.7-0.4,1.3-0.3
						c1.2,0.2,0.9,1.2,2.1,1.4c0.1,0,0.3,0,0.4,0l6-28.5l1.8-8.8l-0.4,0.1l-2.4,7.4l-1.3-3.7l-0.5,1.1L713.7,158.6z"/>
				</g>
			</g>
			<g>
				<g>
					<polygon class="st20" points="717.2,150.3 717.2,150.3 717.2,150.3 					"/>
				</g>
			</g>
			<g>
				<g>
					<path class="st27" d="M708.9,187.6c-1.1-0.2-0.9-1.2-2.1-1.4c-0.6-0.1-1,0.1-1.3,0.3c0.8,3.8,2.8,6,2.8,6l1-4.8
						C709.2,187.6,709,187.6,708.9,187.6z"/>
				</g>
			</g>
			<g>
				<g>
					<polygon class="st20" points="710.9,148.2 710.2,148.5 711.9,153.3 712.3,152.3 					"/>
				</g>
			</g>
			<g>
				<g>
					<path class="st22" d="M705.2,184.3l-1.3,2.1c0.1,0.1,0.3,0.1,0.5,0.2c0.5,0.1,0.9,0,1.2-0.2c-0.1-0.6-0.2-1.2-0.3-1.8
						C705.2,184.5,705.2,184.4,705.2,184.3z"/>
				</g>
			</g>
			<g>
				<g>
					<polygon class="st20" points="713,154.2 712.3,152.3 711.9,153.3 712.5,155.2 					"/>
				</g>
			</g>
			<g>
				<g>
					<path class="st27" d="M705.5,186.4c-0.3,0.2-0.6,0.3-1.2,0.2c-0.2,0-0.3-0.1-0.5-0.2l-0.8,1.3c0,0,0.6,0.9,1.8,2
						c1.3,1.1,3.4,2.7,3.4,2.7S706.3,190.2,705.5,186.4z"/>
				</g>
			</g>
			<g>
				<g>
					<path class="st24" d="M719.9,185.1l3.3-26.1l5.5-7l-1.4-0.3l-6.2,7.6l-0.1-4l-1.4,1.5l0.1,4.9c0,0-2.8,19.9-5.1,24.7l0.3,2.1
						c0.3-0.2,0.7-0.4,1.3-0.2c1.2,0.2,0.9,1.2,2.1,1.4c0.3,0.1,0.5,0,0.8,0C719.7,187.3,719.9,185.1,719.9,185.1z"/>
				</g>
			</g>
			<g>
				<g>
					<polygon class="st20" points="720.3,150.2 720.3,147 719.6,147 719.6,150.1 719.5,155.5 720.8,154.1 					"/>
				</g>
			</g>
			<g>
				<g>
					<path class="st29" d="M716,188.1c-0.6-0.1-0.9,0.1-1.3,0.2l0.3,2c0,0-0.9,0.6-2.5,1.1c-1.6,0.5-4.2,1.1-4.2,1.1
						c0.3,0.1,1.5,0.3,4.8,1c3.1,0.7,4.8-1.6,5.8-4c-0.2,0.1-0.4,0.1-0.8,0C717,189.3,717.2,188.3,716,188.1z"/>
				</g>
			</g>
			<g>
				<g>
					<path class="st29" d="M713.1,188.4c-0.7-0.4-0.7-1.1-1.7-1.3c-1-0.2-1.3,0.4-2.1,0.5l-1,4.9
						C708.3,192.5,710.8,191.3,713.1,188.4z"/>
				</g>
			</g>
			<g>
				<g>
					<polygon class="st20" points="717.2,150.3 717.2,150.3 717.2,150.3 					"/>
				</g>
			</g>
			<g>
				<g>
					<polygon class="st20" points="717.2,150.3 717.2,150.3 717.2,150.3 715.3,159.1 					"/>
				</g>
			</g>
			<g>
				<g>
					<path class="st20" d="M713.1,188.4c0.1,0.1,0.3,0.1,0.4,0.2c0.6,0.1,0.9-0.1,1.3-0.2l-0.3-2.1c0,0.1-0.1,0.2-0.1,0.3
						C713.9,187.2,713.5,187.8,713.1,188.4z"/>
				</g>
			</g>
			<g>
				<g>
					<g>
						<path class="st30" d="M731.6,148.3c-0.9-0.6-1.7-0.8-2.4-0.8c1.2-0.7,1.9-2,1.8-3.6l-0.2-2.6l-2.5,0.8c-1.5,0.5-2.4,1.6-2.7,3
							c-0.2-0.7-0.7-1.3-1.6-1.9l-2.3-1.6l-0.5,0.8c-1.1,1.6,0.9,5,3.6,6.8l0.1,0.1l-1.3,1.9l-2.9,3l-1.4,1.4l-2.7,2.8l0.8-7.8
							l-0.3-0.2l-1.9,8.8l-6,28.5c0.8-0.1,1.1-0.7,2.1-0.5c1,0.2,1,0.9,1.7,1.3c0.4-0.6,0.9-1.2,1.3-1.9c0-0.1,0.1-0.2,0.1-0.3
							l-0.7-5.2l3.3-21.7l2.4-2.6l1.4-1.5l2.9-3.2l1.8-2.4l0.1,0.1c2.7,1.8,6.5,2.6,7.6,0.9l0.5-0.8L731.6,148.3z M725.7,147.5
							l0,0.6l-0.2,0.3L725.7,147.5z M726.3,148.6l0.6-0.2l-0.8,0.5L726.3,148.6z"/>
					</g>
				</g>
			</g>
			<g>
				<g>
					<path class="st29" d="M715,190.3l-0.3-2c-0.3,0.2-0.7,0.4-1.3,0.2c-0.2,0-0.3-0.1-0.4-0.2c-2.2,2.9-4.8,4.1-4.8,4.1
						s2.6-0.5,4.2-1.1C714.2,190.9,715,190.3,715,190.3z"/>
				</g>
			</g>
		</g>
		<g>
			<g>
				<g>
					<path class="st20" d="M718.7,135.2c-1.6,2-2.2,4.7-1.5,7.2l0.9,3.4l2.8-13.3L718.7,135.2z"/>
				</g>
			</g>
			<g>
				<g>
					<path class="st31" d="M721.8,135.9l-0.9-3.4l-2.8,13.3l2.2-2.7C721.9,141.1,722.5,138.3,721.8,135.9z"/>
				</g>
			</g>
		</g>
		<g>
			<g>
				<path class="st30" d="M710.1,146.2l0.5-0.1c3.2-0.6,6.4-2.8,6-4.8l-0.2-0.9l-2.7,0.5c-2,0.4-2.6,1.3-3.1,2.8L710.1,146.2z"/>
			</g>
		</g>
		<g>
			<g>
				<path class="st30" d="M710.1,146.2l-0.5,0.1c-3.2,0.6-7-0.3-7.4-2.2l-0.2-0.9l2.7-0.5c2-0.4,2.9,0.3,4,1.5L710.1,146.2z"/>
			</g>
		</g>
		<g>
			<g>
				<path class="st30" d="M711.2,143.1l-1.2,2.3l-2-1.7c-1.4-1.3-1.8-3.1-0.9-4.8l1.2-2.3l2,1.7
					C711.7,139.5,712.1,141.4,711.2,143.1z"/>
			</g>
		</g>
		<g>
			<g>
				<path class="st30" d="M708.9,156.5c0,0-0.1,0.4-0.2,1.1c-0.2,0.7-0.4,1.6-0.7,2.8c-0.3,1.1-0.6,2.5-1,3.9
					c-0.4,1.4-0.8,2.9-1.3,4.4c-0.5,1.5-0.9,3-1.3,4.4c-0.4,1.4-0.9,2.7-1.3,3.8c-0.4,1.1-0.7,2-0.9,2.7c-0.2,0.6-0.4,1-0.4,1
					s0.1-0.4,0.2-1.1c0.2-0.7,0.4-1.6,0.7-2.8c0.3-1.1,0.6-2.5,1-3.9c0.4-1.4,0.8-2.9,1.3-4.4c0.5-1.5,0.9-3,1.3-4.4
					c0.4-1.4,0.9-2.7,1.3-3.8c0.4-1.1,0.7-2,0.9-2.7C708.8,156.9,708.9,156.5,708.9,156.5z"/>
			</g>
		</g>
		<g>
			<g>
				<path class="st30" d="M709.9,157.8c0,0-0.1,0.4-0.2,1c-0.1,0.6-0.3,1.6-0.6,2.7c-0.3,1.1-0.5,2.4-0.9,3.7
					c-0.3,1.4-0.7,2.8-1.1,4.3c-0.4,1.4-0.8,2.9-1.2,4.2c-0.4,1.4-0.8,2.6-1.1,3.7c-0.3,1.1-0.7,2-0.9,2.6c-0.2,0.6-0.3,1-0.3,1
					s0.1-0.4,0.2-1c0.1-0.6,0.3-1.6,0.6-2.7c0.3-1.1,0.5-2.4,0.9-3.7c0.3-1.4,0.7-2.8,1.1-4.3c0.4-1.4,0.8-2.9,1.2-4.2
					c0.4-1.4,0.8-2.6,1.1-3.7c0.3-1.1,0.7-2,0.9-2.6C709.8,158.2,709.9,157.8,709.9,157.8z"/>
			</g>
		</g>
		<g>
			<g>
				<path class="st30" d="M714.1,159.5c0,0-0.1,0.4-0.2,1c-0.1,0.6-0.3,1.6-0.5,2.6c-0.3,1.1-0.5,2.4-0.9,3.7
					c-0.3,1.4-0.7,2.8-1.1,4.2c-0.4,1.4-0.8,2.9-1.2,4.2c-0.4,1.3-0.8,2.6-1.1,3.6c-0.3,1.1-0.6,1.9-0.8,2.6c-0.2,0.6-0.3,1-0.3,1
					s0.1-0.4,0.2-1c0.1-0.6,0.3-1.6,0.5-2.6c0.3-1.1,0.5-2.4,0.9-3.7c0.3-1.4,0.7-2.8,1.1-4.2c0.4-1.4,0.8-2.9,1.2-4.2
					c0.4-1.3,0.8-2.6,1.1-3.6c0.3-1.1,0.6-1.9,0.8-2.6C714,159.8,714.1,159.5,714.1,159.5z"/>
			</g>
		</g>
		<g>
			<g>
				<path class="st30" d="M714.7,159.8c0,0-0.1,0.4-0.2,1c-0.1,0.6-0.3,1.6-0.5,2.7c-0.2,1.1-0.5,2.4-0.8,3.7
					c-0.3,1.4-0.6,2.8-1,4.3c-0.4,1.4-0.7,2.9-1.1,4.2c-0.3,1.4-0.7,2.6-1,3.7c-0.3,1.1-0.6,2-0.8,2.6c-0.2,0.6-0.3,1-0.3,1
					s0.1-0.4,0.2-1c0.1-0.6,0.3-1.6,0.5-2.7c0.2-1.1,0.5-2.4,0.8-3.7c0.3-1.4,0.6-2.8,1-4.3c0.4-1.4,0.7-2.9,1.1-4.2
					c0.3-1.4,0.7-2.6,1-3.7c0.3-1.1,0.6-2,0.8-2.6C714.5,160.2,714.7,159.8,714.7,159.8z"/>
			</g>
		</g>
		<g>
			<g>
				<path class="st32" d="M716.2,160.2c0,0,0,0.4-0.1,1c-0.1,0.6-0.1,1.6-0.3,2.7c-0.1,1.1-0.3,2.4-0.5,3.8
					c-0.2,1.4-0.4,2.9-0.6,4.3c-0.2,1.5-0.5,2.9-0.7,4.3c-0.2,1.4-0.5,2.6-0.7,3.7s-0.4,2-0.6,2.6c-0.2,0.6-0.2,1-0.2,1s0-0.4,0.1-1
					c0.1-0.6,0.1-1.6,0.3-2.7c0.1-1.1,0.3-2.4,0.5-3.8c0.2-1.4,0.4-2.9,0.6-4.3c0.2-1.5,0.5-2.9,0.7-4.3c0.2-1.4,0.5-2.6,0.7-3.7
					c0.2-1.1,0.4-2,0.6-2.6C716.1,160.5,716.2,160.2,716.2,160.2z"/>
			</g>
		</g>
		<g>
			<g>
				<path class="st32" d="M715.6,160.3c0,0,0,0.4-0.1,1c-0.1,0.6-0.2,1.6-0.3,2.7c-0.2,1.1-0.3,2.4-0.6,3.8
					c-0.2,1.4-0.5,2.8-0.7,4.3c-0.3,1.5-0.6,2.9-0.8,4.3c-0.3,1.4-0.6,2.6-0.8,3.7c-0.2,1.1-0.5,2-0.6,2.6c-0.2,0.6-0.3,1-0.3,1
					s0-0.4,0.1-1c0.1-0.6,0.2-1.6,0.3-2.7c0.2-1.1,0.3-2.4,0.6-3.8c0.2-1.4,0.5-2.8,0.7-4.3c0.3-1.5,0.6-2.9,0.8-4.3
					c0.3-1.4,0.6-2.6,0.8-3.7c0.2-1.1,0.5-2,0.6-2.6C715.5,160.6,715.6,160.3,715.6,160.3z"/>
			</g>
		</g>
		<g>
			<g>
				<path class="st30" d="M722,159.7c0,0,0,0.4,0,1.1c0,0.7-0.1,1.6-0.2,2.8c-0.1,1.1-0.2,2.5-0.3,3.9c-0.1,1.4-0.3,2.9-0.5,4.5
					c-0.2,1.5-0.4,3-0.6,4.5c-0.2,1.4-0.4,2.7-0.6,3.9c-0.2,1.1-0.4,2.1-0.5,2.7c-0.1,0.7-0.2,1-0.2,1s0-0.4,0-1.1
					c0-0.7,0.1-1.6,0.2-2.8c0.1-1.1,0.2-2.5,0.3-3.9c0.1-1.4,0.3-2.9,0.5-4.5c0.2-1.5,0.4-3,0.6-4.5c0.2-1.4,0.4-2.7,0.6-3.9
					c0.2-1.1,0.4-2.1,0.5-2.7C721.9,160,722,159.7,722,159.7z"/>
			</g>
		</g>
		<g>
			<g>
				<path class="st30" d="M720.9,160.1c0,0,0,0.4-0.1,1c-0.1,0.6-0.1,1.6-0.3,2.7c-0.1,1.1-0.3,2.4-0.4,3.8
					c-0.2,1.4-0.4,2.8-0.6,4.3c-0.2,1.5-0.5,2.9-0.7,4.3c-0.2,1.4-0.5,2.6-0.7,3.7c-0.2,1.1-0.4,2-0.5,2.6c-0.1,0.6-0.2,1-0.2,1
					s0-0.4,0.1-1c0.1-0.6,0.1-1.6,0.2-2.7c0.1-1.1,0.3-2.4,0.4-3.8c0.2-1.4,0.4-2.9,0.6-4.3c0.2-1.5,0.5-2.9,0.7-4.3
					c0.2-1.4,0.5-2.6,0.7-3.7c0.2-1.1,0.4-2,0.5-2.6C720.8,160.5,720.9,160.1,720.9,160.1z"/>
			</g>
		</g>
	</g>
	<g>
		<rect x="667.7" y="169.2" class="st33" width="54.6" height="59.4"/>
	</g>
	<g>
		<rect x="694.8" y="169.2" class="st34" width="27.5" height="59.4"/>
	</g>
</g>
<g>
	<path class="st35" d="M1705.2,152.4l-8.4,19.6l2.2,0.9l8.4-19.6c0.1-0.2,0-0.5-0.2-0.6c-0.5-0.2-0.9-0.4-1.4-0.6
		C1705.5,152.1,1705.3,152.2,1705.2,152.4z"/>
	<path class="st35" d="M1705.2,157.2l-1.4-0.6l2.4-5.5c0.2-0.4,0.6-0.6,1-0.4l0,0c0.4,0.2,0.6,0.6,0.4,1L1705.2,157.2z"/>
</g>
<g>
	<g>
		<defs>
			<polygon id="SVGID_1_" points="191.8,100.9 191.8,432 425.9,432 425.9,100.9 191.8,100.9 			"/>
		</defs>
		<use xlink:href="#SVGID_1_"  style="overflow:visible;fill:#EDEDED;"/>
		<clipPath id="SVGID_2_">
			<use xlink:href="#SVGID_1_"  style="overflow:visible;"/>
		</clipPath>
		<polygon class="st36" points="206.2,100.9 206.2,432 411.5,432 411.5,100.9 206.2,100.9 		"/>
	</g>
	<path class="st37" d="M425.8,101.2V91.1c0,0,0-35.9-44.8-35.9H236.4c0,0-44.8-3.4-44.8,35.9v10.1H425.8L425.8,101.2z"/>
	<polygon class="st38" points="290,76.3 290,82.8 342.2,82.8 342.2,76.3 290,76.3 	"/>
	<polygon class="st38" points="275.6,76.3 275.6,82.8 284.3,82.8 284.3,76.3 275.6,76.3 	"/>
</g>
<g>
	<polygon class="st39" points="428.8,341.2 178.2,341.2 170.1,350.7 436.9,350.7 	"/>
	<rect x="176.7" y="359.9" class="st40" width="253.7" height="52.7"/>
	<rect x="176.7" y="395.5" class="st41" width="253.7" height="17.1"/>
	<rect x="176.7" y="359.9" class="st42" width="253.7" height="25.7"/>
	<rect x="170.1" y="350.1" class="st43" width="266.7" height="25.5"/>
	<rect x="178.2" y="155.9" class="st44" width="250.6" height="185.3"/>
	<rect x="178.2" y="262" class="st45" width="250.6" height="31.6"/>
	<path class="st46" d="M496.3,154.4H127.4l0,0c0-8.3,9.3-15.1,20.9-15.1h327.1C486.9,139.3,496.3,146.1,496.3,154.4L496.3,154.4z"/>
	<path class="st45" d="M429.1,178.4h-18.7H377h-33.3h-33.3h-33.3h-33.3h-33.3h-31.8v28.1c2.6,5.7,8.4,9.7,15.1,9.7l0,0
		c9.2,0,16.7-7.5,16.7-16.7c0,9.2,7.5,16.7,16.7,16.7c9.2,0,16.7-7.5,16.7-16.7c0,9.2,7.5,16.7,16.7,16.7c9.2,0,16.7-7.5,16.7-16.7
		c0,9.2,7.5,16.7,16.7,16.7c9.2,0,16.7-7.5,16.7-16.7c0,9.2,7.5,16.7,16.7,16.7c9.2,0,16.7-7.5,16.7-16.7c0,9.2,7.5,16.7,16.7,16.7
		l0,0c9.2,0,16.7-7.5,16.7-16.7c0,9.2,7.5,16.7,16.7,16.7c9.2,0,16.7-7.5,16.7-16.7c0,9.2,7.5,16.7,16.7,16.7c0.7,0,1.4-0.1,2.1-0.1
		V178.4z"/>
	<g>
		<path class="st47" d="M150.5,192.2L150.5,192.2c-12.7,0-23.1-7.5-23.1-16.7v-21.1h46.1v21.1C173.5,184.7,163.2,192.2,150.5,192.2z
			"/>
		<path class="st48" d="M196.6,192.2L196.6,192.2c-12.7,0-23.1-7.5-23.1-16.7v-21.1h46.1v21.1C219.6,184.7,209.3,192.2,196.6,192.2z
			"/>
		<path class="st47" d="M242.7,192.2L242.7,192.2c-12.7,0-23.1-7.5-23.1-16.7v-21.1h46.1v21.1C265.7,184.7,255.4,192.2,242.7,192.2z
			"/>
		<path class="st48" d="M288.8,192.2L288.8,192.2c-12.7,0-23.1-7.5-23.1-16.7v-21.1h46.1v21.1C311.9,184.7,301.5,192.2,288.8,192.2z
			"/>
		<path class="st47" d="M334.9,192.2L334.9,192.2c-12.7,0-23.1-7.5-23.1-16.7v-21.1H358v21.1C358,184.7,347.6,192.2,334.9,192.2z"/>
		<path class="st48" d="M381,192.2L381,192.2c-12.7,0-23.1-7.5-23.1-16.7v-21.1h46.1v21.1C404.1,184.7,393.7,192.2,381,192.2z"/>
		<path class="st47" d="M427.1,192.2L427.1,192.2c-12.7,0-23.1-7.5-23.1-16.7v-21.1h46.1v21.1C450.2,184.7,439.9,192.2,427.1,192.2z
			"/>
		<path class="st48" d="M473.2,192.2L473.2,192.2c-12.7,0-23.1-7.5-23.1-16.7v-21.1h46.1v21.1C496.3,184.7,486,192.2,473.2,192.2z"
			/>
	</g>
	<rect x="170.1" y="257.1" class="st49" width="266.7" height="9.9"/>
	<polygon class="st41" points="436.9,257.1 428.8,250.7 178.2,250.7 170.1,257.1 	"/>
	<g>
		<g>
			<g>
				<ellipse class="st50" cx="341.6" cy="330.5" rx="14" ry="16.5"/>
				<path class="st51" d="M352.2,341.3c-1.3,0.9-2.5,1.8-3.8,2.5c-1.8-0.5-3.8-1.1-5.8-2c1.7-0.8,3.4-1.7,5.1-2.9
					c1.8,0.6,3.5,1.1,5.1,1.4c0.2-0.3,0.3-0.5,0.5-0.8c-1.5-0.3-3-0.7-4.7-1.2c1.4-1,2.9-2.1,4.3-3.3c0.7,0.2,1.3,0.3,2,0.5
					c0.1-0.3,0.1-0.6,0.2-0.8c-0.5-0.1-0.9-0.2-1.4-0.3c0.6-0.5,1.2-1.1,1.7-1.6c0.1-0.4,0.1-0.9,0.1-1.3c-0.9,1-1.9,1.9-2.8,2.7
					c-1.6-0.4-3.2-1-4.9-1.7c1.3-1,2.6-2.1,3.9-3.3c1.3,0.5,2.6,0.8,3.8,1.2c0-0.3,0-0.6,0-0.9c-1-0.3-2-0.6-3.1-0.9
					c0.9-0.8,1.7-1.7,2.5-2.6c-0.1-0.3-0.2-0.7-0.3-1c-1,1.2-2.1,2.3-3.2,3.3c-1.4-0.5-2.9-1.2-4.4-1.9c1.2-1,2.4-2.1,3.6-3.3
					c1.3,0.6,2.6,1.1,3.8,1.5c-0.1-0.4-0.3-0.7-0.4-1.1c-0.9-0.3-1.8-0.7-2.8-1.1c0.5-0.5,1-1,1.4-1.5c-0.2-0.3-0.3-0.5-0.5-0.8
					c-0.6,0.7-1.2,1.3-1.8,1.9c-1.3-0.6-2.6-1.3-3.9-2.1c1-0.9,1.9-1.8,2.9-2.9c-0.2-0.2-0.5-0.4-0.7-0.5c-1,1-2,2-3,2.9
					c-1.2-0.8-2.4-1.6-3.7-2.6c0.9-0.7,1.8-1.5,2.6-2.3c-0.3-0.1-0.7-0.2-1-0.2c-0.8,0.7-1.5,1.4-2.3,2c-0.8-0.6-1.5-1.3-2.3-2
					c-0.3,0.1-0.7,0.1-1,0.2c0.9,0.8,1.8,1.6,2.6,2.3c-1.2,0.9-2.5,1.8-3.7,2.6c-1-0.9-2-1.9-3-2.9c-0.2,0.2-0.5,0.3-0.7,0.5
					c1,1,1.9,2,2.9,2.9c-1.3,0.8-2.6,1.5-3.9,2.1c-0.6-0.6-1.2-1.3-1.8-1.9c-0.2,0.2-0.3,0.5-0.5,0.8c0.5,0.5,1,1,1.4,1.5
					c-0.9,0.4-1.9,0.8-2.8,1.1c-0.1,0.3-0.3,0.7-0.4,1.1c1.2-0.4,2.5-0.9,3.8-1.5c1.2,1.2,2.4,2.3,3.6,3.3c-1.5,0.7-2.9,1.4-4.4,1.9
					c-1.1-1-2.1-2.1-3.2-3.3c-0.1,0.3-0.2,0.6-0.3,1c0.8,0.9,1.7,1.8,2.5,2.6c-1,0.4-2.1,0.7-3.1,0.9c0,0.3,0,0.6,0,0.9
					c1.2-0.3,2.5-0.7,3.8-1.2c1.3,1.2,2.6,2.3,3.9,3.3c-1.7,0.7-3.3,1.2-4.9,1.7c-1-0.8-1.9-1.8-2.8-2.7c0,0.5,0.1,0.9,0.1,1.3
					c0.6,0.6,1.2,1.1,1.7,1.6c-0.5,0.1-0.9,0.2-1.4,0.3c0.1,0.3,0.1,0.6,0.2,0.8c0.7-0.1,1.3-0.3,2-0.5c1.4,1.2,2.9,2.4,4.3,3.3
					c-1.6,0.5-3.2,0.9-4.7,1.2c0.2,0.3,0.3,0.5,0.5,0.8c1.6-0.3,3.3-0.8,5.1-1.4c1.7,1.1,3.4,2.1,5.1,2.9c-2,0.8-3.9,1.5-5.8,2
					c-1.3-0.8-2.5-1.6-3.8-2.5c1,1.4,2.2,2.6,3.6,3.5c0,0,0,0,0.1,0c0.9,0.5,1.7,1,2.5,1.4c1.2,0.5,2.5,0.8,3.9,0.8
					c-1.7-0.7-3.5-1.5-5.2-2.5c1.9-0.5,3.8-1.2,5.8-2.1c2,0.9,3.9,1.6,5.8,2.1c-1.8,1-3.5,1.8-5.2,2.5c1.3-0.1,2.7-0.3,3.9-0.8
					c0.8-0.4,1.7-0.9,2.5-1.4c0,0,0,0,0.1,0C350,343.8,351.2,342.7,352.2,341.3z M352,334.8c-1.4,1.2-2.9,2.3-4.4,3.3
					c-1.7-0.6-3.3-1.3-5.1-2.2c1.5-0.8,3-1.8,4.5-2.9C348.8,333.7,350.4,334.3,352,334.8z M346.2,332.6c-1.5,1.1-3,2-4.5,2.8
					c-1.5-0.8-3-1.7-4.5-2.8c1.5-0.7,3-1.5,4.5-2.4C343.2,331.1,344.7,331.9,346.2,332.6z M337.6,326.4c1.3-0.7,2.7-1.6,4.1-2.5
					c1.4,0.9,2.7,1.8,4.1,2.5c-1.4,1.1-2.7,2-4.1,2.8C340.3,328.4,338.9,327.4,337.6,326.4z M350.9,328.8c-1.3,1.2-2.6,2.3-4,3.2
					c-1.5-0.7-3-1.4-4.5-2.3c1.4-0.9,2.7-1.8,4.1-2.9C348,327.6,349.5,328.2,350.9,328.8z M346.1,320.4c1.3,0.8,2.7,1.5,4,2.2
					c-1.2,1.2-2.4,2.2-3.6,3.2c-1.3-0.7-2.7-1.5-4.1-2.4C343.6,322.5,344.9,321.5,346.1,320.4z M341.6,317.3c1.2,1,2.5,1.8,3.7,2.6
					c-1.2,1.1-2.5,2-3.7,2.9c-1.2-0.9-2.5-1.8-3.7-2.9C339.2,319.1,340.4,318.3,341.6,317.3z M333.2,322.6c1.3-0.6,2.6-1.4,4-2.2
					c1.2,1.1,2.5,2,3.7,2.9c-1.4,0.9-2.7,1.7-4,2.4C335.6,324.8,334.4,323.8,333.2,322.6z M332.3,328.8c1.4-0.6,2.9-1.2,4.4-2
					c1.4,1.1,2.7,2,4.1,2.9c-1.5,0.9-3,1.7-4.5,2.3C335,331.1,333.7,330,332.3,328.8z M331.3,334.8c1.6-0.5,3.2-1,4.9-1.8
					c1.5,1.1,3,2,4.5,2.9c-1.7,0.9-3.4,1.6-5.1,2.2C334.2,337.1,332.7,336,331.3,334.8z M336.5,338.6c1.7-0.6,3.4-1.4,5.1-2.3
					c1.7,0.9,3.4,1.6,5.1,2.3c-1.7,1.1-3.4,2-5.1,2.8C340,340.6,338.3,339.7,336.5,338.6z"/>
				<g>
					<path class="st52" d="M339.1,325.7c0.8,0.6,1.7,1.2,2.5,1.7c0.8-0.5,1.7-1.1,2.5-1.7c-0.8-0.5-1.7-1-2.5-1.6
						C340.8,324.6,340,325.2,339.1,325.7z"/>
					<path class="st52" d="M343.9,322.5c0.8,0.5,1.6,1,2.4,1.5c0.8-0.6,1.5-1.3,2.2-2c-0.8-0.4-1.6-0.9-2.4-1.3
						C345.4,321.3,344.7,321.9,343.9,322.5z"/>
					<path class="st52" d="M338.8,331.9c0.9,0.6,1.9,1.2,2.8,1.7c0.9-0.5,1.9-1.1,2.8-1.7c-0.9-0.5-1.9-1-2.8-1.5
						C340.7,330.9,339.8,331.4,338.8,331.9z"/>
					<path class="st52" d="M334.7,322c0.7,0.7,1.5,1.3,2.2,2c0.8-0.5,1.6-0.9,2.4-1.5c-0.8-0.6-1.5-1.2-2.3-1.8
						C336.3,321.1,335.5,321.6,334.7,322z"/>
					<path class="st52" d="M336.4,330.2c0.9-0.4,1.8-0.9,2.8-1.4c-0.9-0.6-1.7-1.2-2.5-1.8c-0.9,0.4-1.8,0.9-2.7,1.2
						C334.8,328.9,335.6,329.6,336.4,330.2z"/>
					<path class="st52" d="M330.7,332.3c1-0.3,2-0.6,2.9-1c-0.8-0.7-1.6-1.3-2.4-2c-0.9,0.3-1.8,0.6-2.8,0.9
						C329.2,330.9,330,331.6,330.7,332.3z"/>
					<path class="st52" d="M329.7,324.2c0.7,0.7,1.4,1.5,2.1,2.1c0.9-0.3,1.7-0.7,2.6-1.1c-0.8-0.7-1.5-1.3-2.2-2
						C331.4,323.5,330.6,323.9,329.7,324.2z"/>
					<path class="st52" d="M349.6,343.3c0.2,0.1,0.4,0.1,0.7,0.1c0.5-0.5,1-1,1.5-1.6C351.1,342.4,350.4,342.8,349.6,343.3z"/>
					<path class="st52" d="M331.5,341.8c0.5,0.6,1,1.1,1.5,1.6c0.2,0,0.4-0.1,0.7-0.1C332.9,342.8,332.2,342.4,331.5,341.8z"/>
					<path class="st52" d="M353.6,324.2c-0.8-0.3-1.7-0.6-2.5-1c-0.7,0.7-1.5,1.4-2.2,2c0.9,0.4,1.7,0.8,2.6,1.1
						C352.2,325.6,352.9,324.9,353.6,324.2z"/>
					<path class="st52" d="M338.9,335c-0.9-0.6-1.9-1.2-2.8-1.8c-1,0.4-2,0.8-3,1.1c0.9,0.7,1.8,1.3,2.7,2
						C336.8,335.9,337.8,335.4,338.9,335z"/>
					<path class="st52" d="M337.4,317.4c0.7-0.5,1.5-1,2.2-1.5c-0.5-0.4-1-0.9-1.5-1.4c-0.9,0.3-1.7,0.6-2.5,1.1
						C336.1,316.3,336.8,316.9,337.4,317.4z"/>
					<path class="st52" d="M344.1,328.8c0.9,0.5,1.8,1,2.8,1.4c0.8-0.6,1.6-1.3,2.4-2c-0.9-0.4-1.8-0.8-2.7-1.2
						C345.8,327.6,345,328.3,344.1,328.8z"/>
					<path class="st52" d="M354.2,327.3c0.4,0.1,0.8,0.2,1.2,0.4c0-0.2,0-0.4,0-0.6c0-0.3-0.1-0.6-0.2-0.8
						C354.8,326.6,354.5,326.9,354.2,327.3z"/>
					<path class="st52" d="M348.2,318.8c0.8,0.4,1.5,0.8,2.3,1.2c0.4-0.4,0.7-0.8,1.1-1.2c-0.5-0.6-1.1-1.2-1.7-1.7
						C349.3,317.7,348.8,318.3,348.2,318.8z"/>
					<path class="st52" d="M344.8,338c-1.1-0.4-2.1-0.9-3.1-1.4c-1,0.5-2.1,1-3.1,1.4c1,0.6,2.1,1.1,3.1,1.6
						C342.7,339.1,343.8,338.5,344.8,338z"/>
					<path class="st52" d="M329.4,338c1.1-0.2,2.2-0.5,3.3-0.8c-0.9-0.7-1.8-1.3-2.6-2.1c-0.6,0.1-1.2,0.3-1.8,0.4
						c0.2,0.8,0.5,1.5,0.8,2.2C329.2,337.8,329.3,337.9,329.4,338z"/>
					<path class="st52" d="M332.8,320.1c0.8-0.4,1.5-0.8,2.3-1.2c-0.6-0.5-1.1-1.1-1.7-1.7c-0.6,0.5-1.2,1.1-1.7,1.7
						C332,319.3,332.4,319.7,332.8,320.1z"/>
					<path class="st52" d="M330.3,321.2c0,0-0.1-0.1-0.1-0.1c-0.1,0.1-0.1,0.2-0.2,0.3C330.1,321.3,330.2,321.2,330.3,321.2z"/>
					<path class="st52" d="M329.1,327.3c-0.3-0.3-0.7-0.7-1-1.1c-0.1,0.5-0.2,0.9-0.3,1.4C328.3,327.5,328.7,327.4,329.1,327.3z"/>
					<path class="st52" d="M345.2,343.8c-1.2-0.4-2.4-0.9-3.6-1.4c-1.2,0.5-2.4,1-3.6,1.4c1.2,0.6,2.4,1.1,3.6,1.6
						C342.9,345,344,344.4,345.2,343.8z"/>
					<path class="st52" d="M334.9,342.1c1.2-0.3,2.4-0.7,3.6-1.2c-1-0.6-2.1-1.2-3.1-1.8c-1.1,0.4-2.3,0.7-3.4,1
						C333,340.8,333.9,341.5,334.9,342.1z"/>
					<path class="st52" d="M354.8,335.5c-0.5-0.1-1.1-0.2-1.6-0.4c-0.9,0.7-1.7,1.4-2.6,2.1c1.1,0.3,2.2,0.6,3.3,0.8
						c0.1-0.1,0.2-0.2,0.3-0.3c0.1-0.3,0.3-0.6,0.4-1C354.7,336.4,354.8,336,354.8,335.5z"/>
					<path class="st52" d="M353.8,333.5c0.5,0.1,1.1,0.2,1.6,0.3c0.1-0.7,0.2-1.4,0.2-2.1C355,332.4,354.4,333,353.8,333.5z"/>
					<path class="st52" d="M344.4,335c1,0.5,2.1,0.9,3.1,1.3c0.9-0.6,1.8-1.3,2.7-2c-1-0.3-2-0.7-3-1.1
						C346.3,333.8,345.4,334.4,344.4,335z"/>
					<path class="st52" d="M354.8,330.2c-0.9-0.3-1.9-0.5-2.8-0.9c-0.8,0.7-1.6,1.4-2.4,2c1,0.4,1.9,0.7,2.9,1
						C353.3,331.6,354.1,330.9,354.8,330.2z"/>
					<path class="st52" d="M351.3,340.1c-1.1-0.3-2.3-0.6-3.4-1c-1,0.6-2.1,1.3-3.1,1.8c1.2,0.4,2.4,0.8,3.6,1.2
						C349.3,341.5,350.3,340.8,351.3,340.1z"/>
					<path class="st52" d="M341.6,320.9c0.8-0.6,1.5-1.1,2.2-1.7c-0.8-0.5-1.5-1.1-2.2-1.6c-0.7,0.6-1.5,1.1-2.2,1.6
						C340.1,319.8,340.9,320.4,341.6,320.9z"/>
					<path class="st52" d="M343.7,315.9c0.7,0.5,1.4,1,2.2,1.5c0.6-0.6,1.2-1.2,1.8-1.8c-0.8-0.5-1.6-0.8-2.5-1.1
						C344.7,315,344.2,315.5,343.7,315.9z"/>
					<path class="st52" d="M353,321.2c0.1,0,0.2,0.1,0.3,0.1c-0.1-0.1-0.1-0.2-0.2-0.3C353.1,321.1,353.1,321.1,353,321.2z"/>
				</g>
				<path class="st53" d="M343.8,304.5c-3.8-11.9,4.4-16.2,8-16.6c-3.5,2.3,0,10.5-5.2,16.2C346.1,304.7,343.8,304.5,343.8,304.5z"
					/>
				<path class="st53" d="M339.4,304.5c3.8-11.9-4.4-16.2-8-16.6c3.5,2.3,0,10.5,5.2,16.2C337.2,304.7,339.4,304.5,339.4,304.5z"/>
				<path class="st54" d="M336.6,306.4c0,3.2,2.3,10.2,5.1,10.2s5.1-7,5.1-10.2c0-10.8-5.1-22.4-5.1-22.4S336.6,294.8,336.6,306.4z"
					/>
				<path class="st55" d="M341.5,307c2.4-12.2,11.7-12.1,15-10.7c-4.2,0.3-5.1,9.2-12.4,11.7C343.4,308.3,341.5,307,341.5,307z"/>
				<path class="st55" d="M341.8,307c-2.4-12.2-11.7-12.1-15-10.7c4.2,0.3,5.1,9.2,12.4,11.7C339.9,308.3,341.8,307,341.8,307z"/>
				<path class="st53" d="M337,309.7c0,2.2,2.1,7,4.6,7s4.6-4.8,4.6-7c0-7.4-4.6-15.2-4.6-15.2S337,301.8,337,309.7z"/>
				<path class="st56" d="M342,312.7c1.4-7.9,8.4-8.6,12-7.9c-2.8,1.3-9.1,11.5-11.6,9.8C341.7,314.1,342,312.7,342,312.7z"/>
				<path class="st56" d="M341.3,312.7c-1.4-7.9-8.4-8.6-12-7.9c2.8,1.3,9.1,11.5,11.6,9.8C341.6,314.1,341.3,312.7,341.3,312.7z"/>
				<path class="st54" d="M337.5,312.9c0,1.2,1.9,3.7,4.2,3.7c2.3,0,4.2-2.6,4.2-3.7c0-3.9-4.2-8.1-4.2-8.1S337.5,308.7,337.5,312.9
					z"/>
				<path class="st57" d="M341.6,314c-2.4,0-4.7,0.7-6.8,2c0.2,0,0.3,0,0.5,0c1.8,0,2.7,2.1,2.5,3.7c1-0.9,2.5-1.1,3.7-0.6
					c1.2,0.6,2,1.9,1.9,3.2c0.9-0.7,2.3-0.7,3.3,0c1,0.6,1.4,1.9,1.2,3c1.1,0,2,1,2.4,2.1c0.3,1.1,0.2,2.2,0.1,3.3
					c0.4,1,0.2,2.1,0,3.2c-0.1,0.6-0.2,1.2-0.4,1.7c-0.3,0.9-0.8,1.6-1.4,2.3c-0.1,1-0.4,1.9-1,2.7c-0.7,0.9-1.8,1.6-2.9,2.1
					c-1.8,0.8-3.7,1.2-5.7,1.1c-2.5-0.1-4.7-1.1-7-1.4c2.2,2.9,6.2,4.7,9.8,4.7c7.7,0,14-7.4,14-16.5S349.4,314,341.6,314z"/>
				<path class="st53" d="M342.2,314.8c0.7-3.5,6.3-4.6,8.4-4.4c-2.4,1.4-2.7,5.8-7.9,5.9C342,316.3,342.2,314.8,342.2,314.8z"/>
				<path class="st53" d="M341.1,314.8c-0.7-3.5-6.3-4.6-8.4-4.4c2.4,1.4,2.7,5.8,7.9,5.9C341.3,316.3,341.1,314.8,341.1,314.8z"/>
				<path class="st56" d="M337.5,314.5c0,1.2,1.9,2.1,4.2,2.1c2.3,0,4.2-0.9,4.2-2.1c0-1.5-4.2-4.1-4.2-4.1S337.5,313.1,337.5,314.5
					z"/>
			</g>
			<g>
				<polygon class="st44" points="351.6,325.6 357.7,315.5 359.3,316.6 				"/>
				<path class="st45" d="M357,318.7l-2.4,3.3l4.7-5.4l-1.5-1.1l-1,1.7C357.2,317.5,357.5,318.1,357,318.7z"/>
				
					<ellipse transform="matrix(0.5877 -0.8091 0.8091 0.5877 -99.7571 421.6597)" class="st58" cx="363.8" cy="308.7" rx="9.1" ry="9.1"/>
				
					<ellipse transform="matrix(0.5877 -0.8091 0.8091 0.5877 -100.6932 421.5117)" class="st56" cx="363.2" cy="309.6" rx="9.1" ry="9.1"/>
				
					<ellipse transform="matrix(0.5877 -0.809 0.809 0.5877 -100.7004 421.4824)" class="st41" cx="363.2" cy="309.6" rx="8.3" ry="8.3"/>
				
					<ellipse transform="matrix(0.5877 -0.809 0.809 0.5877 -100.7004 421.4818)" class="st56" cx="363.2" cy="309.6" rx="7.6" ry="7.6"/>
				<g>
					<path class="st41" d="M358.2,307.9c-0.3,0.1-1.3,0.2-1.6,0c-0.1-0.1-0.1-0.1,0-0.2c0.1-0.1,0.5-0.3,0.7-0.3
						c0.3-0.1,0.5,0,0.8,0.1l1-0.2l-0.8-0.5c0,0-0.3-0.2-0.2-0.3c0.1-0.2,0.2-0.3,0.4-0.3c0.2,0,0.6,0.1,0.9,0.3l0.9,0.4
						c0.3-0.1,1.2-0.5,1.4-0.8c0.1-0.1,0-0.2-0.1-0.2c0,0,0,0-0.5-0.3c-0.6-0.3-1.3-0.6-2-0.8l0,0l0.3,0.2c0,0,0.1,0.1,0.1,0.1
						c0,0.1-0.2,0-0.2,0l-0.7-0.2c-0.4-0.1-0.4-0.2-0.4-0.3c0.1-0.1,0.8-0.4,1-0.5c0.4-0.1,0.7,0,1,0.2c1.5,0.7,1.9,0.9,2.2,1.1
						c0.2,0.1,0.5,0.4,0.3,0.6c-0.3,0.4-1.6,1-2,1.1l0.3,0.3l-0.4,0.2c-0.1,0-0.2,0.1-0.3,0.1c-0.1,0-0.3-0.1-0.5-0.2L358.2,307.9z"
						/>
					<path class="st41" d="M361.1,308.2c-0.4,0.1-0.7,0.1-1.1,0.2l0.1-0.2c0.2,0,0.4-0.1,0.6-0.1c-0.1-0.1-0.1-0.1,0-0.3
						c0.3-0.4,1-0.4,1.2-0.3c0,0,0.1,0.1,0,0.2c0,0-0.1,0.1-0.1,0.1c0.5,0.3,0.8,0.4,0.9,0.5c0,0.2,0,0.3-0.1,0.4
						c-0.1,0.2-0.3,0.2-0.5,0.2c-0.2,0-0.7,0.1-0.8,0.3c-0.1,0.1,0,0.2,0.1,0.3c0.2,0.2,0.8,0.1,1,0.1l-0.1,0.2
						c-0.3,0.1-1.3,0.2-1.6,0c-0.2-0.2-0.2-0.4-0.1-0.6c0.3-0.3,0.7-0.4,1.1-0.5l0,0L361.1,308.2z"/>
					<path class="st41" d="M364.1,311c-0.6,0.1-1.5,0.2-2-0.2c-0.4-0.3-0.3-0.7-0.1-1.1c0.5-0.7,1.7-0.8,2.3-0.3
						c0.2,0.1,0.3,0.3,0.2,0.5c-0.2,0.2-0.7,0.4-1.9,0.1l-0.1,0.1c-0.2,0.2,0,0.4,0.1,0.5c0.4,0.3,1.1,0.2,1.5,0.2L364.1,311z
						 M364.1,309.7C364.1,309.7,364.1,309.6,364.1,309.7c-0.3-0.2-0.8-0.2-1.2,0C363.5,309.9,364.1,309.8,364.1,309.7z"/>
					<path class="st41" d="M365.9,312.1l-0.1,0.2c-0.5,0.1-1.4,0.1-1.8-0.2c-0.3-0.3-0.6-0.7-0.4-1.2c-0.1,0-0.1,0-0.2,0
						c-0.1,0,0-0.1,0-0.2c0-0.1,0.2-0.1,0.2-0.1l1.8-0.2c0.1-0.2,0.3-0.3,0.5-0.1c0.2,0.1,0.1,0.2,0.1,0.3c-0.1,0.2-0.2,0.4-0.3,0.7
						c-0.3,0.4-0.9,0.5-1.3,0.4c0.3,0.3,0.6,0.3,1,0.3L365.9,312.1z M364.1,310.9c0.2,0.1,0.2,0.4,0.2,0.6c0.4,0,0.6,0,0.8-0.3
						c0.1-0.1,0.1-0.3,0.2-0.5L364.1,310.9z"/>
					<path class="st41" d="M366.1,312.6c0.4,0,1.9-0.2,2.2,0c0.1,0.1,0.2,0.3,0.1,0.4c-0.1,0.1-0.4,0.2-0.5,0.2
						c-0.6,0.2-0.6,0.2-0.6,0.2c0,0.1,0,0.1,0,0.2c0.2,0.1,0.7,0.1,0.9,0.1l-0.1,0.2c-0.4,0-1.3,0.1-1.6-0.1c-0.2-0.1-0.1-0.3,0-0.4
						c0.2-0.3,0.9-0.5,1.2-0.6l0,0c-1.3,0-1.9,0.3-2.1,0.2c-0.2-0.1,0.1-0.5,0.2-0.7c0.3-0.3,0.6-0.5,0.9-0.7c1.3-0.6,3-0.7,3.1-0.6
						c0.1,0.1,0.2,0.2,0.1,0.3c-0.2,0.3-3.1,0.8-3.6,0.9L366.1,312.6z"/>
				</g>
				<path class="st59" d="M367.8,311.5c-0.6,0.1-1.3,0.3-1.9,0.4c-3.3,0.7-6.5,1.4-9.7,2.4c-0.2,0.1-0.4,0.1-0.6,0.2
					c0.4,0.6,0.9,1.2,1.5,1.8c0.8-0.4,1.6-0.8,2.4-1.1C362.3,313.9,365,312.7,367.8,311.5z"/>
				<path class="st59" d="M354.7,309.7c3.4-1,6.9-1.9,10.5-2.6c2.1-0.5,4.3-0.8,6.4-1.2c-0.6-1.4-1.6-2.8-3-3.7c-4.1-3-9.7-2-12.7,2
					c-1.3,1.7-1.8,3.7-1.7,5.7C354.3,309.9,354.5,309.8,354.7,309.7z"/>
			</g>
		</g>
		<g>
			<g>
				<path class="st60" d="M327.1,335.4c-0.5,6.8-6.1,11.8-12.5,11.9c-6.4,0-12-5.1-12.5-11.9c-0.5-6.7,5.1-12.6,12.5-12.6
					C322,322.7,327.6,328.7,327.1,335.4z"/>
				<path class="st61" d="M317.9,323.2c-0.1,0-0.2-0.1-0.3-0.1c-1-0.2-2-0.3-3-0.3c-1.9,0-9.9,1.3-7.4,4.6c0.5,0.7,1.3,1.1,2.1,1.4
					c2.4,0.8,5.1,0.7,7.4-0.5c1.3-0.7,3-1.5,4.4-0.9c1.8,0.8,2.1,3.6,2.1,5.3c0,5.7-4.9,10.6-10.6,10.6c-5.6,0-10.3-4.6-10.5-10.2
					c-0.1,0.8-0.1,1.6-0.1,2.4c0.5,6.7,6.1,11.8,12.5,11.9c6.4,0,12-5.1,12.5-11.9C327.5,329.7,323.6,324.7,317.9,323.2z"/>
				<path class="st62" d="M312.5,325.5c0,0,0-0.1-0.1-0.3c0-0.2-0.1-0.5-0.2-0.7c-0.1-0.3-0.2-0.7-0.3-1c-0.2-0.4-0.3-0.7-0.5-1.1
					c-0.4-0.7-0.9-1.3-1.4-1.7c-0.2-0.2-0.4-0.3-0.5-0.4c-0.1-0.1-0.2-0.1-0.2-0.1l0,0c-0.5-0.3-0.7-1-0.4-1.5
					c0.3-0.5,1-0.7,1.5-0.4c0,0,0.1,0.1,0.1,0.1c0,0,0.1,0.1,0.3,0.2c0.2,0.2,0.4,0.4,0.7,0.7c0.5,0.6,1.1,1.5,1.5,2.4
					c0.2,0.5,0.3,0.9,0.4,1.4c0.1,0.4,0.2,0.9,0.2,1.2c0,0.4,0.1,0.7,0.1,0.9c0,0.2,0,0.3,0,0.3c0,0.3-0.2,0.6-0.6,0.6
					C312.8,326,312.6,325.8,312.5,325.5z"/>
				<path class="st56" d="M317.3,321.7c1.4-0.8,3-0.5,4.6-0.5c0.6,0,3.6-0.2,3.7-1.2c-0.2,2.3-1.3,5.3-3.7,5.9
					c-1.1,0.3-2.3,0.2-3.4,0c-1.6-0.2-3.2-0.3-4.8-0.5c0.8-1.4,1.9-2.6,3.2-3.5C317,321.9,317.2,321.8,317.3,321.7z"/>
				<circle class="st63" cx="305.8" cy="329.5" r="0.6"/>
				<circle class="st63" cx="306.9" cy="332.2" r="0.7"/>
				<circle class="st63" cx="305.6" cy="332.4" r="0.5"/>
				<circle class="st63" cx="308" cy="334.8" r="1.1"/>
				<circle class="st63" cx="309.2" cy="333.2" r="0.4"/>
				<circle class="st63" cx="305.4" cy="334.7" r="0.6"/>
				<circle class="st63" cx="311.2" cy="335.1" r="0.7"/>
				<circle class="st63" cx="313.2" cy="334.1" r="0.5"/>
				<circle class="st63" cx="309.7" cy="336.9" r="0.5"/>
			</g>
			<g>
				<polygon class="st44" points="308,330.3 301.5,322 302.9,321.1 				"/>
				<path class="st45" d="M304,323.6l2,3.1l-3.1-5.6l-1.4,0.9l1.1,1.4C303,323.1,303.6,323.1,304,323.6z"/>
				
					<ellipse transform="matrix(0.8342 -0.5515 0.5515 0.8342 -124.2532 216.4229)" class="st58" cx="297.8" cy="314.8" rx="8.1" ry="8.1"/>
				
					<ellipse transform="matrix(0.8341 -0.5516 0.5516 0.8341 -124.6072 216.8865)" class="st56" cx="298.3" cy="315.6" rx="8.1" ry="8.1"/>
				
					<ellipse transform="matrix(0.8342 -0.5515 0.5515 0.8342 -124.5994 216.8541)" class="st41" cx="298.3" cy="315.6" rx="7.3" ry="7.3"/>
				
					<ellipse transform="matrix(0.8341 -0.5516 0.5516 0.8341 -124.6119 216.9079)" class="st56" cx="298.3" cy="315.6" rx="6.8" ry="6.8"/>
				<g>
					<path class="st41" d="M295.4,319.2c0,0.3-0.3,1.2-0.5,1.3c-0.1,0-0.1,0-0.2,0c-0.1-0.1-0.1-0.5,0-0.6c0-0.3,0.1-0.4,0.3-0.6
						l0.2-0.9l-0.7,0.5c0,0-0.2,0.2-0.3,0.1c-0.1-0.1-0.2-0.2-0.1-0.4c0.1-0.2,0.3-0.5,0.5-0.6l0.6-0.6c0-0.3,0-1.2-0.2-1.4
						c-0.1-0.1-0.1,0-0.2,0c0,0,0,0-0.4,0.3c-0.5,0.4-0.9,0.9-1.3,1.5l0,0l0.2-0.2c0,0,0.1-0.1,0.1,0c0,0.1-0.1,0.1-0.1,0.2
						l-0.4,0.5c-0.3,0.3-0.3,0.3-0.4,0.2c-0.1-0.1-0.1-0.8-0.1-0.9c0-0.3,0.2-0.6,0.5-0.8c1-1.1,1.4-1.3,1.6-1.5
						c0.2-0.1,0.5-0.3,0.6-0.1c0.2,0.3,0.3,1.6,0.3,2l0.3-0.2l0,0.4c0,0.1,0,0.2,0,0.2c-0.1,0.1-0.2,0.2-0.3,0.3L295.4,319.2z"/>
					<path class="st41" d="M296.5,317c0,0.4-0.1,0.6-0.2,0.9l-0.2-0.2c0.1-0.2,0.1-0.4,0.1-0.5c-0.1,0.1-0.2,0-0.2-0.1
						c-0.2-0.3,0-1,0.1-1.1c0,0,0.1,0,0.1,0c0,0,0,0.1,0.1,0.2c0.4-0.3,0.6-0.6,0.7-0.5c0.1,0,0.2,0.1,0.3,0.2
						c0.1,0.1,0.1,0.3,0,0.4c-0.1,0.2-0.1,0.6,0,0.8c0,0.1,0.2,0.1,0.2,0c0.2-0.1,0.3-0.6,0.4-0.8l0.1,0.1c0,0.3-0.2,1.2-0.5,1.4
						c-0.2,0.1-0.4,0-0.5-0.1c-0.2-0.3-0.1-0.7-0.1-1.1l0,0L296.5,317z"/>
					<path class="st41" d="M299.7,315.3c-0.1,0.5-0.3,1.3-0.7,1.6c-0.3,0.2-0.7,0-0.9-0.3c-0.4-0.6-0.2-1.7,0.4-2.1
						c0.2-0.1,0.4-0.2,0.5,0c0.1,0.2,0.1,0.7-0.5,1.6l0.1,0.1c0.1,0.2,0.3,0.1,0.4,0c0.3-0.2,0.5-0.8,0.6-1.2L299.7,315.3z
						 M298.7,314.9C298.7,314.9,298.6,314.9,298.7,314.9c-0.3,0.2-0.4,0.6-0.3,1C298.7,315.5,298.7,315,298.7,314.9z"/>
					<path class="st41" d="M301.2,314.2l0.2,0.1c-0.1,0.5-0.3,1.2-0.7,1.5c-0.3,0.2-0.8,0.2-1.1,0c0,0,0,0.1-0.1,0.1
						c0,0-0.1,0-0.1,0c0-0.1,0-0.2,0-0.2l0.4-1.6c-0.1-0.2-0.1-0.4,0.1-0.5c0.1-0.1,0.2-0.1,0.3,0.1c0.1,0.2,0.3,0.3,0.4,0.5
						c0.3,0.4,0.1,0.9,0,1.2c0.3-0.1,0.4-0.4,0.5-0.7L301.2,314.2z M299.7,315.3c0.2-0.1,0.4,0,0.5,0c0.2-0.4,0.2-0.5,0-0.8
						c-0.1-0.1-0.2-0.2-0.3-0.3L299.7,315.3z"/>
					<path class="st41" d="M301.7,314.1c0.1-0.3,0.5-1.6,0.7-1.8c0.1-0.1,0.3,0,0.4,0.1c0.1,0.1,0,0.4,0,0.5c-0.1,0.5,0,0.5,0,0.6
						c0,0.1,0.1,0.1,0.2,0c0.2-0.1,0.3-0.6,0.4-0.8l0.1,0.2c-0.1,0.3-0.4,1.1-0.6,1.3c-0.1,0.1-0.3,0-0.4-0.1
						c-0.2-0.3-0.1-0.9-0.1-1.2l0,0c-0.4,1.1-0.3,1.7-0.5,1.8c-0.2,0.1-0.4-0.2-0.5-0.3c-0.2-0.3-0.2-0.6-0.3-1
						c0-1.3,0.3-2.7,0.5-2.8c0.1,0,0.2-0.1,0.3,0c0.2,0.3-0.3,2.8-0.4,3.3L301.7,314.1z"/>
				</g>
				<path class="st59" d="M301.3,312.4c-0.1,0.6-0.2,1.1-0.3,1.7c-0.4,2.9-0.8,5.9-1,8.8c0,0.2,0,0.4,0,0.6c0.7-0.1,1.3-0.4,1.9-0.7
					c-0.1-0.8-0.1-1.6-0.2-2.4C301.6,317.8,301.4,315.1,301.3,312.4z"/>
				<path class="st59" d="M295.8,322.8c0.2-3.2,0.6-6.4,1.1-9.5c0.3-1.9,0.6-3.8,1-5.7c-1.4,0.1-2.8,0.5-4.1,1.3
					c-3.7,2.5-4.7,7.5-2.3,11.2c1,1.6,2.5,2.7,4.2,3.2C295.8,323.1,295.8,322.9,295.8,322.8z"/>
			</g>
		</g>
		<g>
			<g>
				<path class="st64" d="M197.7,302.2c0-4.1,0-10.4,0-10.4h-7.3c0,0,0,6.4,0,10.4c0,4.1-6,5.1-6,8.3c0,3.3,0,33.9,0,33.9
					c0,1.9,4.3,3.5,9.7,3.5c5.3,0,9.7-1.6,9.7-3.5c0,0,0-30.6,0-33.9C203.7,307.2,197.7,306.3,197.7,302.2z"/>
				<path class="st65" d="M194,346.2c-4.9,0-7.6-1.3-8-1.9v-33.8c0-0.7,1-1.5,2.1-2.3c1.7-1.3,3.9-3,3.9-6v-10.4h4v10.4
					c0,3,2.2,4.6,3.9,6c1.1,0.8,2.1,1.6,2.1,2.3v33.8C201.7,344.9,198.9,346.2,194,346.2z"/>
				<path class="st66" d="M186,311.1v33.2c0.4,0.6,3.1,1.9,8,1.9c4.9,0,7.6-1.3,8-1.9v-33.2H186z"/>
				<ellipse class="st67" cx="194" cy="291.7" rx="3.6" ry="1.3"/>
				<ellipse class="st41" cx="194" cy="291.7" rx="2.7" ry="1"/>
				<rect x="191.3" y="284" class="st41" width="5.5" height="7.7"/>
				<ellipse class="st68" cx="194" cy="284" rx="2.7" ry="1"/>
				<ellipse class="st69" cx="194" cy="311.1" rx="8" ry="2.9"/>
				<ellipse class="st52" cx="192.3" cy="286.1" rx="0.4" ry="0.5"/>
				<ellipse class="st52" cx="193.5" cy="288.1" rx="0.5" ry="0.7"/>
				<ellipse class="st52" cx="193" cy="290.5" rx="0.7" ry="1"/>
				<ellipse class="st52" cx="194.5" cy="289.7" rx="0.3" ry="0.5"/>
				<ellipse class="st52" cx="192.3" cy="288.7" rx="0.4" ry="0.6"/>
				<ellipse class="st70" cx="194" cy="326.4" rx="9" ry="12.8"/>
				<ellipse class="st61" cx="194" cy="326.4" rx="7.9" ry="11.2"/>
				<ellipse class="st70" cx="194" cy="326.4" rx="7.1" ry="10.1"/>
				<g>
					<ellipse class="st44" cx="190.3" cy="325.8" rx="1.7" ry="1.8"/>
					<ellipse class="st44" cx="193.9" cy="325.8" rx="1.7" ry="1.8"/>
					<ellipse class="st44" cx="192.3" cy="329.5" rx="1.7" ry="1.8"/>
					<ellipse class="st44" cx="193.9" cy="333.2" rx="1.7" ry="1.8"/>
					<ellipse class="st44" cx="195.9" cy="329.5" rx="1.7" ry="1.8"/>
					<ellipse class="st44" cx="197.5" cy="325.8" rx="1.7" ry="1.8"/>
					<path class="st56" d="M194,321.4c-0.2-0.7-0.8-1.4-1.5-1.7c-0.2-0.1-0.4-0.1-0.5-0.3c-0.1-0.2,0-0.5,0.2-0.6
						c0.2-0.1,0.4-0.2,0.6-0.2c0.1,0.7,0.8,1.3,1.1,1.9c0.4,0.7,0.6,1.9,0.1,2.7c-0.2-0.1,0-0.5,0-0.7
						C194.1,322.2,194.1,321.8,194,321.4z"/>
					<path class="st56" d="M195.7,321.8c0.6-0.3,1.3-0.2,2-0.2c0.3,0,1.5-0.1,1.6-0.5c-0.1,1-0.5,2.2-1.6,2.5c-0.5,0.1-1,0.1-1.5,0
						c-0.7-0.1-1.4-0.1-2-0.2c0.3-0.6,0.8-1.1,1.4-1.5C195.6,321.8,195.7,321.8,195.7,321.8z"/>
				</g>
			</g>
			<g>
				<g>
					<path class="st71" d="M195.4,315.3c-0.1,0-0.2,0-0.3,0c-0.2,0-0.4,0-0.7,0h-7v9.1h15.7v-9.1H195.4z"/>
					<path class="st71" d="M200,306.3v4.1c0,2.6-2,4.6-4.5,4.8h7.6l-1.4-6.2c-0.3-1.2-0.9-2.3-1.7-3.1
						C199.9,306.1,200,306.2,200,306.3z"/>
					<path class="st71" d="M189.6,308.6v-4.1c0,0,0,0,0,0c-0.7,0.8-1.2,1.7-1.4,2.8l-0.8,8h7C192.1,315,189.6,310.9,189.6,308.6z"/>
				</g>
				<g>
					<path class="st72" d="M194.4,313.3c-0.1,0-0.2,0-0.3,0c-0.2,0-0.4,0-0.7,0h-7v9.8H202v-9.8H194.4z"/>
					<path class="st72" d="M198.9,304.3v4.1c0,2.6-2,4.6-4.5,4.8h7.6l-1.4-6.2c-0.3-1.2-0.9-2.3-1.7-3.1
						C198.9,304.1,198.9,304.2,198.9,304.3z"/>
					<path class="st72" d="M189.2,308.4v-4.1c0,0,0,0,0,0c-0.7,0.8-1.2,1.7-1.4,2.8l-1.4,6.2h7C191,313,189.2,310.8,189.2,308.4z"/>
				</g>
				<g>
					<path class="st44" d="M198.4,322.3h-8.7c-1.5,0-2.7-1.2-2.7-2.7v-2.8c0-1.5,1.2-2.7,2.7-2.7h8.7c1.5,0,2.7,1.2,2.7,2.7v2.8
						C201.2,321.1,199.9,322.3,198.4,322.3z M189.8,314.9c-1.1,0-1.9,0.9-1.9,1.9v2.8c0,1.1,0.9,1.9,1.9,1.9h8.7
						c1.1,0,1.9-0.9,1.9-1.9v-2.8c0-1.1-0.9-1.9-1.9-1.9H189.8z"/>
				</g>
			</g>
		</g>
		<g>
			<g>
				<path class="st64" d="M224.1,302.2c0-4.1,0-10.4,0-10.4h-7.3c0,0,0,6.4,0,10.4c0,4.1-6,5.1-6,8.3c0,3.3,0,33.9,0,33.9
					c0,1.9,4.3,3.5,9.7,3.5c5.3,0,9.7-1.6,9.7-3.5c0,0,0-30.6,0-33.9C230.2,307.2,224.1,306.3,224.1,302.2z"/>
				<path class="st65" d="M220.5,346.2c-4.9,0-7.6-1.3-8-1.9v-33.8c0-0.7,1-1.5,2.1-2.3c1.7-1.3,3.9-3,3.9-6v-10.4h4v10.4
					c0,3,2.2,4.6,3.9,6c1.1,0.8,2.1,1.6,2.1,2.3v33.8C228.1,344.9,225.4,346.2,220.5,346.2z"/>
				<path class="st66" d="M212.5,311.1v33.2c0.4,0.6,3.1,1.9,8,1.9c4.9,0,7.6-1.3,8-1.9v-33.2H212.5z"/>
				<ellipse class="st67" cx="220.5" cy="291.7" rx="3.6" ry="1.3"/>
				<ellipse class="st41" cx="220.5" cy="291.7" rx="2.7" ry="1"/>
				<rect x="217.7" y="284" class="st41" width="5.5" height="7.7"/>
				<ellipse class="st68" cx="220.5" cy="284" rx="2.7" ry="1"/>
				<ellipse class="st69" cx="220.5" cy="311.1" rx="8" ry="2.9"/>
				<ellipse class="st52" cx="218.8" cy="286.1" rx="0.4" ry="0.5"/>
				<ellipse class="st52" cx="220" cy="288.1" rx="0.5" ry="0.7"/>
				<ellipse class="st52" cx="219.5" cy="290.5" rx="0.7" ry="1"/>
				<ellipse class="st52" cx="221" cy="289.7" rx="0.3" ry="0.5"/>
				<ellipse class="st52" cx="218.8" cy="288.7" rx="0.4" ry="0.6"/>
				<ellipse class="st70" cx="220.5" cy="326.4" rx="9" ry="12.8"/>
				<ellipse class="st61" cx="220.5" cy="326.4" rx="7.9" ry="11.2"/>
				<ellipse class="st70" cx="220.5" cy="326.4" rx="7.1" ry="10.1"/>
				<g>
					<ellipse class="st44" cx="216.8" cy="325.8" rx="1.7" ry="1.8"/>
					<ellipse class="st44" cx="220.4" cy="325.8" rx="1.7" ry="1.8"/>
					<ellipse class="st44" cx="218.7" cy="329.5" rx="1.7" ry="1.8"/>
					<ellipse class="st44" cx="220.4" cy="333.2" rx="1.7" ry="1.8"/>
					<ellipse class="st44" cx="222.3" cy="329.5" rx="1.7" ry="1.8"/>
					<ellipse class="st44" cx="224" cy="325.8" rx="1.7" ry="1.8"/>
					<path class="st56" d="M220.5,321.4c-0.2-0.7-0.8-1.4-1.5-1.7c-0.2-0.1-0.4-0.1-0.5-0.3c-0.1-0.2,0-0.5,0.2-0.6
						c0.2-0.1,0.4-0.2,0.6-0.2c0.1,0.7,0.8,1.3,1.1,1.9c0.4,0.7,0.6,1.9,0.1,2.7c-0.2-0.1,0-0.5,0-0.7
						C220.6,322.2,220.6,321.8,220.5,321.4z"/>
					<path class="st56" d="M222.2,321.8c0.6-0.3,1.3-0.2,2-0.2c0.3,0,1.5-0.1,1.6-0.5c-0.1,1-0.5,2.2-1.6,2.5c-0.5,0.1-1,0.1-1.5,0
						c-0.7-0.1-1.4-0.1-2-0.2c0.3-0.6,0.8-1.1,1.4-1.5C222.1,321.8,222.1,321.8,222.2,321.8z"/>
				</g>
			</g>
			<g>
				<g>
					<path class="st71" d="M221.9,315.3c-0.1,0-0.2,0-0.3,0c-0.2,0-0.4,0-0.7,0h-7v9.1h15.7v-9.1H221.9z"/>
					<path class="st71" d="M226.4,306.3v4.1c0,2.6-2,4.6-4.5,4.8h7.6l-1.4-6.2c-0.3-1.2-0.9-2.3-1.7-3.1
						C226.4,306.1,226.4,306.2,226.4,306.3z"/>
					<path class="st71" d="M216.1,308.6v-4.1c0,0,0,0,0,0c-0.7,0.8-1.2,1.7-1.4,2.8l-0.8,8h7C218.6,315,216.1,310.9,216.1,308.6z"/>
				</g>
				<g>
					<path class="st72" d="M220.8,313.3c-0.1,0-0.2,0-0.3,0c-0.2,0-0.4,0-0.7,0h-7v9.8h15.7v-9.8H220.8z"/>
					<path class="st72" d="M225.4,304.3v4.1c0,2.6-2,4.6-4.5,4.8h7.6L227,307c-0.3-1.2-0.9-2.3-1.7-3.1
						C225.4,304.1,225.4,304.2,225.4,304.3z"/>
					<path class="st72" d="M215.6,308.4v-4.1c0,0,0,0,0,0c-0.7,0.8-1.2,1.7-1.4,2.8l-1.4,6.2h7C217.5,313,215.6,310.8,215.6,308.4z"
						/>
				</g>
				<g>
					<path class="st44" d="M224.9,322.3h-8.7c-1.5,0-2.7-1.2-2.7-2.7v-2.8c0-1.5,1.2-2.7,2.7-2.7h8.7c1.5,0,2.7,1.2,2.7,2.7v2.8
						C227.6,321.1,226.4,322.3,224.9,322.3z M216.2,314.9c-1.1,0-1.9,0.9-1.9,1.9v2.8c0,1.1,0.9,1.9,1.9,1.9h8.7
						c1.1,0,1.9-0.9,1.9-1.9v-2.8c0-1.1-0.9-1.9-1.9-1.9H216.2z"/>
				</g>
			</g>
		</g>
		<g>
			<g>
				<path class="st64" d="M250.6,302.2c0-4.1,0-10.4,0-10.4h-7.3c0,0,0,6.4,0,10.4c0,4.1-6,5.1-6,8.3c0,3.3,0,33.9,0,33.9
					c0,1.9,4.3,3.5,9.7,3.5c5.3,0,9.7-1.6,9.7-3.5c0,0,0-30.6,0-33.9C256.6,307.2,250.6,306.3,250.6,302.2z"/>
				<path class="st65" d="M246.9,346.2c-4.9,0-7.6-1.3-8-1.9v-33.8c0-0.7,1-1.5,2.1-2.3c1.7-1.3,3.9-3,3.9-6v-10.4h4v10.4
					c0,3,2.2,4.6,3.9,6c1.1,0.8,2.1,1.6,2.1,2.3v33.8C254.6,344.9,251.8,346.2,246.9,346.2z"/>
				<path class="st66" d="M238.9,311.1v33.2c0.4,0.6,3.1,1.9,8,1.9c4.9,0,7.6-1.3,8-1.9v-33.2H238.9z"/>
				<ellipse class="st67" cx="246.9" cy="291.7" rx="3.6" ry="1.3"/>
				<ellipse class="st41" cx="246.9" cy="291.7" rx="2.7" ry="1"/>
				<rect x="244.2" y="284" class="st41" width="5.5" height="7.7"/>
				<ellipse class="st68" cx="246.9" cy="284" rx="2.7" ry="1"/>
				<ellipse class="st69" cx="246.9" cy="311.1" rx="8" ry="2.9"/>
				<ellipse class="st52" cx="245.2" cy="286.1" rx="0.4" ry="0.5"/>
				<ellipse class="st52" cx="246.4" cy="288.1" rx="0.5" ry="0.7"/>
				<ellipse class="st52" cx="245.9" cy="290.5" rx="0.7" ry="1"/>
				<ellipse class="st52" cx="247.5" cy="289.7" rx="0.3" ry="0.5"/>
				<ellipse class="st52" cx="245.2" cy="288.7" rx="0.4" ry="0.6"/>
				<ellipse class="st70" cx="246.9" cy="326.4" rx="9" ry="12.8"/>
				<ellipse class="st61" cx="246.9" cy="326.4" rx="7.9" ry="11.2"/>
				<ellipse class="st70" cx="246.9" cy="326.4" rx="7.1" ry="10.1"/>
				<g>
					<ellipse class="st44" cx="243.3" cy="325.8" rx="1.7" ry="1.8"/>
					<ellipse class="st44" cx="246.9" cy="325.8" rx="1.7" ry="1.8"/>
					<ellipse class="st44" cx="245.2" cy="329.5" rx="1.7" ry="1.8"/>
					<ellipse class="st44" cx="246.9" cy="333.2" rx="1.7" ry="1.8"/>
					<ellipse class="st44" cx="248.8" cy="329.5" rx="1.7" ry="1.8"/>
					<ellipse class="st44" cx="250.4" cy="325.8" rx="1.7" ry="1.8"/>
					<path class="st56" d="M246.9,321.4c-0.2-0.7-0.8-1.4-1.5-1.7c-0.2-0.1-0.4-0.1-0.5-0.3c-0.1-0.2,0-0.5,0.2-0.6
						c0.2-0.1,0.4-0.2,0.6-0.2c0.1,0.7,0.8,1.3,1.1,1.9c0.4,0.7,0.6,1.9,0.1,2.7c-0.2-0.1,0-0.5,0-0.7
						C247,322.2,247,321.8,246.9,321.4z"/>
					<path class="st56" d="M248.7,321.8c0.6-0.3,1.3-0.2,2-0.2c0.3,0,1.5-0.1,1.6-0.5c-0.1,1-0.5,2.2-1.6,2.5c-0.5,0.1-1,0.1-1.5,0
						c-0.7-0.1-1.4-0.1-2-0.2c0.3-0.6,0.8-1.1,1.4-1.5C248.5,321.8,248.6,321.8,248.7,321.8z"/>
				</g>
			</g>
			<g>
				<g>
					<path class="st71" d="M248.4,315.3c-0.1,0-0.2,0-0.3,0c-0.2,0-0.4,0-0.7,0h-7v9.1H256v-9.1H248.4z"/>
					<path class="st71" d="M252.9,306.3v4.1c0,2.6-2,4.6-4.5,4.8h7.6l-1.4-6.2c-0.3-1.2-0.9-2.3-1.7-3.1
						C252.9,306.1,252.9,306.2,252.9,306.3z"/>
					<path class="st71" d="M242.5,308.6v-4.1c0,0,0,0,0,0c-0.7,0.8-1.2,1.7-1.4,2.8l-0.8,8h7C245,315,242.5,310.9,242.5,308.6z"/>
				</g>
				<g>
					<path class="st72" d="M247.3,313.3c-0.1,0-0.2,0-0.3,0c-0.2,0-0.4,0-0.7,0h-7v9.8h15.7v-9.8H247.3z"/>
					<path class="st72" d="M251.8,304.3v4.1c0,2.6-2,4.6-4.5,4.8h7.6l-1.4-6.2c-0.3-1.2-0.9-2.3-1.7-3.1
						C251.8,304.1,251.8,304.2,251.8,304.3z"/>
					<path class="st72" d="M242.1,308.4v-4.1c0,0,0,0,0,0c-0.7,0.8-1.2,1.7-1.4,2.8l-1.4,6.2h7C244,313,242.1,310.8,242.1,308.4z"/>
				</g>
				<g>
					<path class="st44" d="M251.4,322.3h-8.7c-1.5,0-2.7-1.2-2.7-2.7v-2.8c0-1.5,1.2-2.7,2.7-2.7h8.7c1.5,0,2.7,1.2,2.7,2.7v2.8
						C254.1,321.1,252.9,322.3,251.4,322.3z M242.7,314.9c-1.1,0-1.9,0.9-1.9,1.9v2.8c0,1.1,0.9,1.9,1.9,1.9h8.7
						c1.1,0,1.9-0.9,1.9-1.9v-2.8c0-1.1-0.9-1.9-1.9-1.9H242.7z"/>
				</g>
			</g>
		</g>
		<g>
			<g>
				<path class="st64" d="M277.1,302.2c0-4.1,0-10.4,0-10.4h-7.3c0,0,0,6.4,0,10.4c0,4.1-6,5.1-6,8.3c0,3.3,0,33.9,0,33.9
					c0,1.9,4.3,3.5,9.7,3.5c5.3,0,9.7-1.6,9.7-3.5c0,0,0-30.6,0-33.9C283.1,307.2,277.1,306.3,277.1,302.2z"/>
				<path class="st65" d="M273.4,346.2c-4.9,0-7.6-1.3-8-1.9v-33.8c0-0.7,1-1.5,2.1-2.3c1.7-1.3,3.9-3,3.9-6v-10.4h4v10.4
					c0,3,2.2,4.6,3.9,6c1.1,0.8,2.1,1.6,2.1,2.3v33.8C281.1,344.9,278.3,346.2,273.4,346.2z"/>
				<path class="st66" d="M265.4,311.1v33.2c0.4,0.6,3.1,1.9,8,1.9c4.9,0,7.6-1.3,8-1.9v-33.2H265.4z"/>
				<ellipse class="st67" cx="273.4" cy="291.7" rx="3.6" ry="1.3"/>
				<ellipse class="st41" cx="273.4" cy="291.7" rx="2.7" ry="1"/>
				<rect x="270.7" y="284" class="st41" width="5.5" height="7.7"/>
				<ellipse class="st68" cx="273.4" cy="284" rx="2.7" ry="1"/>
				<ellipse class="st69" cx="273.4" cy="311.1" rx="8" ry="2.9"/>
				<ellipse class="st52" cx="271.7" cy="286.1" rx="0.4" ry="0.5"/>
				<ellipse class="st52" cx="272.9" cy="288.1" rx="0.5" ry="0.7"/>
				<ellipse class="st52" cx="272.4" cy="290.5" rx="0.7" ry="1"/>
				<ellipse class="st52" cx="273.9" cy="289.7" rx="0.3" ry="0.5"/>
				<ellipse class="st52" cx="271.7" cy="288.7" rx="0.4" ry="0.6"/>
				<ellipse class="st70" cx="273.4" cy="326.4" rx="9" ry="12.8"/>
				<ellipse class="st61" cx="273.4" cy="326.4" rx="7.9" ry="11.2"/>
				<ellipse class="st70" cx="273.4" cy="326.4" rx="7.1" ry="10.1"/>
				<g>
					<ellipse class="st44" cx="269.7" cy="325.8" rx="1.7" ry="1.8"/>
					<ellipse class="st44" cx="273.3" cy="325.8" rx="1.7" ry="1.8"/>
					<ellipse class="st44" cx="271.7" cy="329.5" rx="1.7" ry="1.8"/>
					<ellipse class="st44" cx="273.3" cy="333.2" rx="1.7" ry="1.8"/>
					<ellipse class="st44" cx="275.3" cy="329.5" rx="1.7" ry="1.8"/>
					<ellipse class="st44" cx="276.9" cy="325.8" rx="1.7" ry="1.8"/>
					<path class="st56" d="M273.4,321.4c-0.2-0.7-0.8-1.4-1.5-1.7c-0.2-0.1-0.4-0.1-0.5-0.3c-0.1-0.2,0-0.5,0.2-0.6
						c0.2-0.1,0.4-0.2,0.6-0.2c0.1,0.7,0.8,1.3,1.1,1.9c0.4,0.7,0.6,1.9,0.1,2.7c-0.2-0.1,0-0.5,0-0.7
						C273.5,322.2,273.5,321.8,273.4,321.4z"/>
					<path class="st56" d="M275.1,321.8c0.6-0.3,1.3-0.2,2-0.2c0.3,0,1.5-0.1,1.6-0.5c-0.1,1-0.5,2.2-1.6,2.5c-0.5,0.1-1,0.1-1.5,0
						c-0.7-0.1-1.4-0.1-2-0.2c0.3-0.6,0.8-1.1,1.4-1.5C275,321.8,275.1,321.8,275.1,321.8z"/>
				</g>
			</g>
			<g>
				<g>
					<path class="st71" d="M274.8,315.3c-0.1,0-0.2,0-0.3,0c-0.2,0-0.4,0-0.7,0h-7v9.1h15.7v-9.1H274.8z"/>
					<path class="st71" d="M279.3,306.3v4.1c0,2.6-2,4.6-4.5,4.8h7.6L281,309c-0.3-1.2-0.9-2.3-1.7-3.1
						C279.3,306.1,279.3,306.2,279.3,306.3z"/>
					<path class="st71" d="M269,308.6v-4.1c0,0,0,0,0,0c-0.7,0.8-1.2,1.7-1.4,2.8l-0.8,8h7C271.5,315,269,310.9,269,308.6z"/>
				</g>
				<g>
					<path class="st72" d="M273.8,313.3c-0.1,0-0.2,0-0.3,0c-0.2,0-0.4,0-0.7,0h-7v9.8h15.7v-9.8H273.8z"/>
					<path class="st72" d="M278.3,304.3v4.1c0,2.6-2,4.6-4.5,4.8h7.6L280,307c-0.3-1.2-0.9-2.3-1.7-3.1
						C278.3,304.1,278.3,304.2,278.3,304.3z"/>
					<path class="st72" d="M268.6,308.4v-4.1c0,0,0,0,0,0c-0.7,0.8-1.2,1.7-1.4,2.8l-1.4,6.2h7C270.4,313,268.6,310.8,268.6,308.4z"
						/>
				</g>
				<g>
					<path class="st44" d="M277.8,322.3h-8.7c-1.5,0-2.7-1.2-2.7-2.7v-2.8c0-1.5,1.2-2.7,2.7-2.7h8.7c1.5,0,2.7,1.2,2.7,2.7v2.8
						C280.6,321.1,279.3,322.3,277.8,322.3z M269.2,314.9c-1.1,0-1.9,0.9-1.9,1.9v2.8c0,1.1,0.9,1.9,1.9,1.9h8.7
						c1.1,0,1.9-0.9,1.9-1.9v-2.8c0-1.1-0.9-1.9-1.9-1.9H269.2z"/>
				</g>
			</g>
		</g>
		<g>
			<g>
				<path class="st73" d="M377.3,209.1c0-1.9,0-4.2,0-4.2h-11.9c0,0,0,2.3,0,4.2c0,5.2-5.9,9.1-5.9,17.1c0,8,0,26.4,0,26.4
					c0,2.4,5.3,4.3,11.8,4.3c6.5,0,11.8-1.9,11.8-4.3c0,0,0-18.4,0-26.4C383.1,218.2,377.3,214.4,377.3,209.1z"/>
				<path class="st74" d="M371.3,254.6c-5.6,0-8.9-1.5-9.5-2.2v-26.2c0-3.8,1.6-6.6,3.1-9.3c1.4-2.4,2.8-4.9,2.8-7.8v-1.9h7.3v1.9
					c0,2.9,1.4,5.4,2.8,7.8c1.5,2.7,3.1,5.4,3.1,9.3v26.2C380.2,253.1,376.9,254.6,371.3,254.6z"/>
				<path class="st75" d="M361.8,227.2v25.2c0.6,0.7,3.9,2.2,9.5,2.2c5.6,0,8.9-1.5,9.5-2.2v-25.2H361.8z"/>
				<g>
					<ellipse class="st61" cx="371.3" cy="205.4" rx="6.8" ry="2.5"/>
					<rect x="364.5" y="201.6" class="st61" width="13.6" height="3.9"/>
					<ellipse class="st60" cx="371.3" cy="201.6" rx="6.8" ry="2.5"/>
					<ellipse class="st41" cx="371.3" cy="201.4" rx="4.8" ry="1.6"/>
					<ellipse class="st13" cx="371.3" cy="227.2" rx="9.5" ry="3.4"/>
				</g>
				<g>
					<circle class="st13" cx="366.3" cy="233.2" r="0.8"/>
					<circle class="st13" cx="368.4" cy="237" r="0.9"/>
					<circle class="st13" cx="366.1" cy="240.3" r="0.9"/>
					<circle class="st13" cx="368.8" cy="242.3" r="0.9"/>
					<circle class="st13" cx="371.4" cy="244" r="0.8"/>
					<circle class="st13" cx="367.9" cy="247.5" r="0.9"/>
				</g>
			</g>
			<g>
				<g>
					<path class="st71" d="M373,222.1c-0.1,0-0.3,0-0.4,0c-0.3,0-0.5,0-0.8,0h-8.6v11.1h19.1v-11.1H373z"/>
					<path class="st71" d="M381.8,220.3c-0.3-0.6-0.7-1.2-1-1.8c-0.2-0.3-0.2-0.3,0,0c0.3,0.4,0.2,0.3-0.3-0.4
						c-0.3-0.4-0.6-0.8-0.8-1.2c-0.4-0.6-0.6-1.2-0.9-1.9c0-0.1-0.2-0.4-0.3-0.7v1.9c0,3.2-2.5,5.6-5.5,5.9h9.3l-0.4-1.6
						C381.9,220.4,381.9,220.4,381.8,220.3z"/>
					<path class="st71" d="M365.9,214v-5c0,0,0,0,0,0c-0.8,0.9-1.4,2.1-1.7,3.4l-1,9.8h8.6C369,221.8,365.9,216.9,365.9,214z"/>
				</g>
				<g>
					<path class="st70" d="M371.7,219.7c-0.1,0-0.3,0-0.4,0c-0.3,0-0.5,0-0.8,0H362v12H381v-12H371.7z"/>
					<path class="st70" d="M377.3,208.8v5c0,3.2-2.5,5.6-5.5,5.9h9.3l-1.7-7.6c-0.3-1.5-1.1-2.7-2.1-3.8
						C377.3,208.5,377.3,208.6,377.3,208.8z"/>
					<path class="st70" d="M365.4,213.8v-5c0,0,0,0,0,0c-0.8,0.9-1.4,2.1-1.7,3.4l-1.7,7.6h8.6C367.7,219.4,365.4,216.6,365.4,213.8
						z"/>
				</g>
				<g>
					<path class="st44" d="M376.7,230.7h-10.6c-1.8,0-3.3-1.5-3.3-3.3V224c0-1.8,1.5-3.3,3.3-3.3h10.6c1.8,0,3.3,1.5,3.3,3.3v3.4
						C380,229.2,378.5,230.7,376.7,230.7z M366.1,221.6c-1.3,0-2.4,1.1-2.4,2.4v3.4c0,1.3,1.1,2.4,2.4,2.4h10.6
						c1.3,0,2.4-1.1,2.4-2.4V224c0-1.3-1.1-2.4-2.4-2.4H366.1z"/>
				</g>
			</g>
		</g>
		<g>
			<g>
				<path class="st73" d="M406.3,209.1c0-1.9,0-4.2,0-4.2h-11.9c0,0,0,2.3,0,4.2c0,5.2-5.9,9.1-5.9,17.1c0,8,0,26.4,0,26.4
					c0,2.4,5.3,4.3,11.8,4.3c6.5,0,11.8-1.9,11.8-4.3c0,0,0-18.4,0-26.4C412.2,218.2,406.3,214.4,406.3,209.1z"/>
				<path class="st74" d="M400.4,254.6c-5.6,0-8.9-1.5-9.5-2.2v-26.2c0-3.8,1.6-6.6,3.1-9.3c1.4-2.4,2.8-4.9,2.8-7.8v-1.9h7.3v1.9
					c0,2.9,1.4,5.4,2.8,7.8c1.5,2.7,3.1,5.4,3.1,9.3v26.2C409.3,253.1,406,254.6,400.4,254.6z"/>
				<path class="st75" d="M390.9,227.2v25.2c0.6,0.7,3.9,2.2,9.5,2.2s8.9-1.5,9.5-2.2v-25.2H390.9z"/>
				<g>
					<ellipse class="st61" cx="400.4" cy="205.4" rx="6.8" ry="2.5"/>
					<rect x="393.6" y="201.6" class="st61" width="13.6" height="3.9"/>
					<ellipse class="st60" cx="400.4" cy="201.6" rx="6.8" ry="2.5"/>
					<ellipse class="st41" cx="400.4" cy="201.4" rx="4.8" ry="1.6"/>
					<ellipse class="st13" cx="400.4" cy="227.2" rx="9.5" ry="3.4"/>
				</g>
				<g>
					<circle class="st13" cx="395.4" cy="233.2" r="0.8"/>
					<circle class="st13" cx="397.5" cy="237" r="0.9"/>
					<circle class="st13" cx="395.2" cy="240.3" r="0.9"/>
					<circle class="st13" cx="397.9" cy="242.3" r="0.9"/>
					<circle class="st13" cx="400.4" cy="244" r="0.8"/>
					<circle class="st13" cx="397" cy="247.5" r="0.9"/>
				</g>
			</g>
			<g>
				<g>
					<path class="st71" d="M402.1,222.1c-0.1,0-0.3,0-0.4,0c-0.3,0-0.5,0-0.8,0h-8.6v11.1h19.1v-11.1H402.1z"/>
					<path class="st71" d="M410.9,220.3c-0.3-0.6-0.7-1.2-1-1.8c-0.2-0.3-0.2-0.3,0,0c0.3,0.4,0.2,0.3-0.3-0.4
						c-0.3-0.4-0.6-0.8-0.8-1.2c-0.4-0.6-0.6-1.2-0.9-1.9c0-0.1-0.2-0.4-0.3-0.7v1.9c0,3.2-2.5,5.6-5.5,5.9h9.3l-0.4-1.6
						C411,220.4,410.9,220.4,410.9,220.3z"/>
					<path class="st71" d="M395,214v-5c0,0,0,0,0,0c-0.8,0.9-1.4,2.1-1.7,3.4l-1,9.8h8.6C398.1,221.8,395,216.9,395,214z"/>
				</g>
				<g>
					<path class="st70" d="M400.8,219.7c-0.1,0-0.3,0-0.4,0c-0.3,0-0.5,0-0.8,0H391v12h19.1v-12H400.8z"/>
					<path class="st70" d="M406.4,208.8v5c0,3.2-2.5,5.6-5.5,5.9h9.3l-1.7-7.6c-0.3-1.5-1.1-2.7-2.1-3.8
						C406.3,208.5,406.4,208.6,406.4,208.8z"/>
					<path class="st70" d="M394.5,213.8v-5c0,0,0,0,0,0c-0.8,0.9-1.4,2.1-1.7,3.4l-1.7,7.6h8.6C396.8,219.4,394.5,216.6,394.5,213.8
						z"/>
				</g>
				<g>
					<path class="st44" d="M405.8,230.7h-10.6c-1.8,0-3.3-1.5-3.3-3.3V224c0-1.8,1.5-3.3,3.3-3.3h10.6c1.8,0,3.3,1.5,3.3,3.3v3.4
						C409.1,229.2,407.6,230.7,405.8,230.7z M395.2,221.6c-1.3,0-2.4,1.1-2.4,2.4v3.4c0,1.3,1.1,2.4,2.4,2.4h10.6
						c1.3,0,2.4-1.1,2.4-2.4V224c0-1.3-1.1-2.4-2.4-2.4H395.2z"/>
				</g>
			</g>
		</g>
		<g>
			<g>
				<path class="st56" d="M420.4,323.5h-30.2c-1.9,6.1,1.7,18.8,1.7,18.8c0,2.8,6,5.1,13.4,5.1c7.4,0,13.4-2.3,13.4-5.1
					C418.7,342.3,422.3,329.5,420.4,323.5z"/>
				<path class="st76" d="M412.7,324.8c-4.4,0-8.8,0.1-13.2,0.3c-1.2,0.1-2.4,0.1-3.5,0.2c-1.2,0.1-2.5,0-3.7,0c-0.1,0-0.2,0-0.3,0
					c-0.2,0.1-0.4,0.2-0.5,0.4c-0.5,0.6-1.2,1.1-1.8,1.4c0,0.8,0,1.6,0,2.5c0.1,0,0.2,0.1,0.3,0.2c0.5,0.4,0.2,1.2,0.4,1.8
					c0.3,0.8,1.4,0.9,2.2,0.7c0.8-0.2,1.7-0.5,2.5-0.1c0.7,0.4,1,1.2,1.3,2c0.3,0.8,0.8,1.6,1.6,1.7c0.8,0.1,1.4-0.6,2.1-0.8
					c1.3-0.4,2.6,0.5,3.6,1.3c1,0.9,2.1,1.9,3.5,1.7c2.1-0.2,3.1-3.3,5.3-3.4c1.9-0.1,3.7,2.9,5.6,1c0.6-0.6,0.8-1.3,1.2-2.1
					c0.3-0.7,0.8-1.5,1.5-1.8c0,0,0.1,0,0.1,0c0.2-2.3,0.3-4.6,0-6.6c-0.4-0.1-0.8-0.2-1.3-0.2C417.2,324.9,415,324.8,412.7,324.8z"
					/>
				<path class="st70" d="M423.3,326.9c0.4,0,0.8,0.4,1.1-0.2c0.1-0.2,0.1-0.5,0.1-0.8c0-0.7,0-1.3-0.1-2c-2.3,0.5-4-0.9-6.2-0.9
					c-2.3,0-4.5-0.1-6.8-0.1c-4.4,0-8.8,0.1-13.2,0.3c-1.2,0.1-2.4,0.1-3.5,0.2c-1.2,0.1-2.5,0-3.7,0c-0.1,0-0.2,0-0.3,0
					c-0.2,0.1-0.4,0.2-0.5,0.4c-1,1.1-2.3,1.9-3.8,2.1c-0.1,0.6-0.1,1.3,0.5,1.6c0.5,0.3,1.3-0.1,1.8,0.3c0.5,0.4,0.2,1.2,0.4,1.8
					c0.3,0.8,1.4,0.9,2.2,0.7c0.8-0.2,1.7-0.5,2.5-0.1c0.7,0.4,1,1.2,1.3,2c0.3,0.8,0.8,1.6,1.6,1.7c0.8,0.1,1.4-0.6,2.1-0.8
					c1.3-0.4,2.6,0.5,3.6,1.3c1,0.9,2.1,1.9,3.5,1.7c2.1-0.2,3.1-3.3,5.3-3.4c1.9-0.1,3.7,2.9,5.6,1c0.6-0.6,0.8-1.3,1.2-2.1
					c0.3-0.7,0.8-1.5,1.5-1.8c1.1-0.4,2.8,0.1,3.2-1.3c0.1-0.5-0.1-1.2,0.5-1.5C423.1,326.9,423.2,326.9,423.3,326.9z"/>
				<path class="st77" d="M386.8,327.4c0.1-0.1,0.2-0.1,0.3-0.2c1.8-0.6,3.1-2.1,4.7-3.2c0.3-0.2,0.6-0.4,0.9-0.7
					c-0.6,0-1.1,0-1.7,0c-0.1,0-0.2,0-0.3,0c-0.2,0.1-0.4,0.2-0.5,0.4c-1,1.1-2.3,1.9-3.8,2.1C386.4,326.4,386.4,327.1,386.8,327.4z
					"/>
				<path class="st77" d="M393.2,327.1c0.7-0.8,1.4-1.6,2.1-2.4c0.3-0.5,0.7-1,1.1-1.4c-0.4,0-0.8,0-1.2,0.1c0,0.4-0.1,0.8-0.6,0.9
					c0.3-0.1-0.3,0.3-0.4,0.3c-0.2,0.2-0.5,0.3-0.7,0.5c-0.5,0.3-1,0.6-1.4,1c-1,0.8-2,1.6-3.1,2.3c0.1,0.4,0,0.9,0.2,1.3
					c0.2,0.5,0.8,0.7,1.4,0.8C391.5,329.4,392.3,328.2,393.2,327.1z"/>
				<path class="st77" d="M396.1,333.6c0.8-3.8,1.9-7.5,4.4-10.5c-0.7,0-1.5,0-2.2,0.1c-0.2,0-0.3,0-0.5,0c0.2,0.3,0.3,0.7,0.1,1
					c-0.3,0.6-0.8,1.1-1.2,1.6c-1,1.4-1.7,3-2.6,4.5c0.5,0.4,0.8,1.1,1,1.8C395.3,332.7,395.6,333.3,396.1,333.6z"/>
				<path class="st77" d="M417.9,324.8c-0.6-0.1-0.7-0.6-0.6-1c-0.2,0-0.3,0-0.5,0c-0.5,0-0.8-0.4-0.8-0.8c-1.5,0-3-0.1-4.6-0.1
					c-3.2,0-6.4,0-9.6,0.1c0.2,0.2,0.3,0.5,0.2,0.8c-0.5,1.4-1,2.8-1.5,4.2c-0.1,1.6-0.3,3.3-0.7,4.9c0.9,0.1,1.8,0.8,2.5,1.4
					c0.6,0.5,1.2,1,1.8,1.4c-0.5-2.7-0.5-5.5-0.9-8.3c-0.1-0.6,0.4-1.1,0.9-1.1c0-0.6,0.6-0.9,1.1-0.7c0.4-0.5,1.3-0.5,1.5,0.3
					c0.6,2.7,2.7,4.6,4.3,6.8c1.3,0,2.6,1.4,3.8,1.6c-0.5-0.6-0.9-1.1-1.3-1.8c-1.1-1.8-2.6-3.4-3.4-5.5c-0.3-0.7,0.3-1.1,0.9-1.1
					c0,0,0-0.1,0-0.1c-0.5-1,1-1.9,1.5-0.9c0.2-0.1,0.5-0.1,0.7,0.1c0.5,0.4,0.9,0.8,1.3,1.4c-0.1-0.6,0.4-1.3,1.1-1.1
					c0,0,0,0,0.1,0c0.1-0.4,0.5-0.8,1.1-0.7c1.7,0.4,3.1,1.5,4.8,2c0.4,0.1,0.8,0.3,1.1,0.4c0,0,0.1-0.1,0.1-0.1c0.1,0,0.2,0,0.3,0
					c0.4,0,0.8,0.4,1.1-0.2c0.1-0.2,0.1-0.5,0.1-0.8c0-0.1,0-0.2,0-0.4C422.3,325.6,420.1,325.1,417.9,324.8z"/>
				<path class="st77" d="M419.4,328.9c-1.3-0.5-2.6-1.7-4-2c-0.1,0-0.2-0.1-0.3-0.1c0.1,0.2,0.2,0.3,0.3,0.5c1.1,1,2.3,1.9,3.5,2.9
					c0.2-0.1,0.3-0.3,0.6-0.4c0.5-0.2,1.2-0.2,1.8-0.3C420.6,329.3,420,329.2,419.4,328.9z"/>
				<path class="st78" d="M414.9,319c-2.6-0.8-6-1.3-9.6-1.3c-3.7,0-7,0.5-9.6,1.3h-5.5v4.5c0,3.2,6.8,5.8,15.1,5.8
					c8.3,0,15.1-2.6,15.1-5.8V319H414.9z"/>
				<ellipse class="st40" cx="405.3" cy="319" rx="15.1" ry="5.8"/>
				<path class="st79" d="M412.1,321.7c1.7-1.1,3.4-2.2,5-3.3c0.8-0.5,1.5-1,2.3-1.4c-0.1-0.1-0.2-0.2-0.3-0.3
					c-0.9,0.6-1.8,1.2-2.7,1.9C414.9,319.5,413.5,320.6,412.1,321.7z"/>
				<path class="st79" d="M397.5,324c1-0.8,2-1.6,2.9-2.4c3-2.8,6.3-5.6,9.7-8c-1.5-0.2-3.1-0.3-4.8-0.3c-8.3,0-15.1,2.6-15.1,5.8
					C390.2,321.1,393.1,323,397.5,324z"/>
				<path class="st79" d="M416.8,316.1c0.2-0.2,0.5-0.3,0.7-0.5c-0.3-0.1-0.6-0.3-0.9-0.4c-2.1,1.7-4.2,3.5-6.1,5.2
					c-0.7,0.6-1.3,1.2-1.9,1.7C411.2,320,413.9,318,416.8,316.1z"/>
				<path class="st79" d="M403.1,324.7c2.1-2,4.2-3.9,6.4-5.8c-2.6,1.8-5,3.7-7.4,5.7C402.4,324.7,402.7,324.7,403.1,324.7z"/>
				<path class="st79" d="M417.7,321.7c-0.3,0.2-0.7,0.4-1,0.6c-0.6,0.4-1.1,0.7-1.7,1.1c0.1,0,0.2-0.1,0.4-0.1c0,0,0,0,0.1,0
					C416.2,322.8,416.9,322.2,417.7,321.7z"/>
				<circle class="st76" cx="394.3" cy="336.3" r="0.9"/>
				<circle class="st76" cx="397.4" cy="339.5" r="0.7"/>
				<circle class="st76" cx="398.5" cy="338.4" r="0.4"/>
				<circle class="st76" cx="395.3" cy="342.3" r="1.2"/>
				<circle class="st76" cx="398.1" cy="342.3" r="0.4"/>
				<circle class="st76" cx="404.2" cy="342.5" r="1.1"/>
				<circle class="st76" cx="405.5" cy="340.4" r="0.2"/>
				<circle class="st76" cx="411.7" cy="342.6" r="1.2"/>
				<circle class="st76" cx="412.6" cy="340.9" r="0.4"/>
				<circle class="st76" cx="412.8" cy="338.3" r="1.1"/>
				<circle class="st76" cx="417.4" cy="339.5" r="0.7"/>
				<circle class="st76" cx="417" cy="341.8" r="0.3"/>
				<circle class="st76" cx="409.3" cy="338.9" r="0.5"/>
				<circle class="st80" cx="407.6" cy="341.9" r="0.5"/>
				<circle class="st80" cx="401.9" cy="339.1" r="0.7"/>
				<circle class="st80" cx="400.9" cy="342.1" r="0.4"/>
				<circle class="st80" cx="406.2" cy="345.2" r="0.9"/>
				<circle class="st80" cx="409.2" cy="343.1" r="0.4"/>
				<circle class="st80" cx="415.2" cy="340.8" r="0.7"/>
				<circle class="st80" cx="400.6" cy="337" r="0.7"/>
				<circle class="st80" cx="393.7" cy="340.1" r="1"/>
				<circle class="st80" cx="392.3" cy="334.5" r="0.6"/>
				<circle class="st80" cx="399" cy="344.3" r="0.5"/>
			</g>
			<g>
				
					<rect x="366.4" y="329.6" transform="matrix(0.9367 -0.3501 0.3501 0.9367 -93.3445 151.9455)" class="st72" width="14.4" height="9"/>
				<polygon class="st72" points="378.8,327.4 381.9,335.9 386.6,331.6 385.1,327.6 				"/>
				<g>
					<path class="st44" d="M378.6,336.4l-7.5,2.8c-1.3,0.5-2.7-0.2-3.2-1.5l-0.9-2.4c-0.5-1.3,0.2-2.7,1.5-3.2l7.5-2.8
						c1.3-0.5,2.7,0.2,3.2,1.5l0.9,2.4C380.6,334.4,379.9,335.9,378.6,336.4z M368.8,332.7c-0.9,0.3-1.4,1.4-1,2.3l0.9,2.4
						c0.3,0.9,1.4,1.4,2.3,1l7.5-2.8c0.9-0.3,1.4-1.4,1-2.3l-0.9-2.4c-0.3-0.9-1.4-1.4-2.3-1L368.8,332.7z"/>
				</g>
				<g>
					<path class="st44" d="M385.1,330.6c-0.4,0-0.8-0.1-1.1-0.2c-0.2-0.1-0.3-0.3-0.2-0.5c0.1-0.2,0.3-0.3,0.5-0.2
						c1.8,0.6,5.7-1.1,7.2-3.3c-3.5,0.8-5.8,2.1-5.9,2.1c-0.2,0.1-0.4,0-0.5-0.1c-0.1-0.2,0-0.4,0.1-0.5c0.1-0.1,2.8-1.6,6.8-2.4
						c0.1,0,0.3,0,0.3,0.1c0.1,0.1,0.1,0.2,0.1,0.4C391.5,328.5,387.7,330.6,385.1,330.6z"/>
				</g>
			</g>
		</g>
		<g>
			<g>
				<g>
					<path class="st81" d="M283.2,246.9c0-0.7,0-1.4,0.2-2.1c0.1-0.4,0.5-1,0.9-1.2c0.6-0.2,1.1,0.4,1.1,0.9c-0.2-1.2-0.1-2.8,0.3-4
						c0.2-0.6,0.5-1.3,1-1.7c0.6-0.6,1.1-0.7,1.6,0.1c-0.1-0.2,0.2-1,0.2-1.2c0.1-0.5,0.3-0.9,0.5-1.3c0.3-0.6,2.3-3.4,3.1-1.8
						c-0.2-0.3,1-1.5,1.2-1.7c0.5-0.5,1.3-0.8,2-0.7c0.7,0.1,1.4,0.8,1.3,1.6c0.8-0.6,1.9,0.2,2.2,1.1c0.2,0.9-0.2,1.9-0.6,2.8
						c-1,2.2-1.9,4.4-2.7,6.6c-0.6,1.8-2.7,3.3-4.2,4.4c-1.8,1.4-3.7,2.7-5.8,3.7c-1.1,0.5-2.1,1-3.2,1.4c-0.9,0.3-2.2,0.5-3,1
						c1.8-1.2,3.1-3,3.6-5.1C283.1,248.8,283.3,247.8,283.2,246.9z"/>
					<path class="st81" d="M288.7,257.2c0.6,0.4,1.2,0.7,1.9,0.9c0.5,0.1,1.1,0.1,1.5-0.3c0.4-0.4,0.2-1.1-0.3-1.4
						c1,0.7,2.4,1.4,3.6,1.6c0.6,0.1,1.4,0.1,2,0c0.8-0.2,1.1-0.6,0.7-1.4c0.1,0.2,1,0.3,1.2,0.4c0.5,0.1,0.9,0.2,1.4,0.2
						c0.7,0,4.1-0.4,3.1-1.9c0.2,0.3,1.8-0.2,2.1-0.3c0.7-0.2,1.3-0.7,1.5-1.4c0.2-0.7,0-1.6-0.8-1.9c0.9-0.4,0.8-1.8,0-2.4
						c-0.7-0.6-1.7-0.7-2.7-0.8c-2.4-0.2-4.8-0.4-7.1-0.8c-1.9-0.3-4.2,0.9-5.9,1.6c-2.1,0.9-4.1,2-6,3.3c-1,0.7-1.9,1.4-2.8,2.2
						c-0.7,0.6-1.5,1.7-2.3,2.2c1.9-1,4.1-1.3,6.2-0.8C287,256.4,287.9,256.7,288.7,257.2z"/>
					<path class="st82" d="M294.6,253.6c-0.8,0.5-1.7,0.9-2.6,1c-0.8,0.1-1.5,0-2.3-0.1c-0.7-0.1-1.5-0.5-2.2-0.4
						c-0.8,0.1-1.6,0.5-2.4,0.8c-2.3,0.8-5.1,1-7.5,1.5c0.9-0.2,2.2-1.5,2.9-2.1c1.5-1.2,3-2.3,4.1-4c0.6-0.9,1.1-1.9,1.5-2.8
						c0.4-0.9,0.9-1.6,1.9-1.7c-0.2-1.6,0.4-3.2,1.6-4.3c0.4-0.4,1.1-0.8,1.6-0.5c-0.3-0.2,0.8-2.1,1-2.2c0.5-0.6,0.9-1.3,1.6-1.8
						c0.3-0.3,0.7-0.6,1.2-0.5c0.4,0,0.8,0.6,0.6,0.9c0.7-1.3,1.7-2.4,3-3.2c0.6-0.3,1.2-0.6,1.8-0.5c0.6,0.1,1.2,0.8,0.9,1.4
						c0.2-0.6,1.4-1.1,1.9-1.3c0.8-0.3,1.6-0.5,2.5-0.5c1.8,0,3.4,0.9,4.7,2.2c1.1,1.1,1.5,2.8,0.5,4.1c0.4,1.1,0.2,2.3-0.5,3.2
						c-0.7,0.9-1.8,1.4-2.9,1.4c0.3,1.3-0.1,2.7-1.1,3.6c-1,0.9-2.4,1.3-3.7,0.9c-0.4,1.4-1.3,2.6-2.6,3.3c-1.3,0.7-2.8,0.8-4.2,0.4
						C295.5,252.9,295.1,253.3,294.6,253.6z"/>
				</g>
				<g>
					<path class="st83" d="M281.2,262c2.1-2.3,4.5-4.4,7-6.3c1.1-0.9,5.1-3.6,4.3-5.1c-1-1.8-8,3.7-9.1,4.3
						c-1.2,0.8-2.3,1.6-3.6,2.1c-1.1,0.5-2.3,0.8-3.1,1.7c-0.9,1.1-0.1,3.1,0.9,3.9c0.6,0.5,1.3,0.7,2,0.5
						C280.3,262.9,280.7,262.4,281.2,262z"/>
					<path class="st41" d="M278.3,260.1c-0.5-0.6-1.1-0.9-1.6-0.4c-0.6,0.5-0.3,1.4,0,2.1c0.2,0.4,0.5,0.8,0.9,1
						c0.5,0.2,1.1,0.1,1.4-0.5C279.1,261.7,278.8,260.8,278.3,260.1z"/>
					<path class="st80" d="M300.9,241.8c0.2-0.5,0.4-0.9,0.7-1.4c1-1.9,2.3-3.7,3.7-5.3c1.4-1.7,3-3.1,4.8-4.3
						c0.8-0.6,1.8-1.1,2.8-1.5c1-0.4,2-0.5,3-1c-2.5,1.3-4.6,3.1-6.4,5.2c-2,2.4-4.1,4.7-6.1,7.1c2.5-0.7,4.8-2.1,6.6-3.9
						c-3.2,3.8-7.4,6.3-11.7,8.7c0.6-0.9,1.2-1.6,1.9-2.4C300.4,242.7,300.7,242.3,300.9,241.8z"/>
					<path class="st80" d="M302.8,231.9c-0.4,4.7-2.4,9.2-5.5,12.8c-1.6,1.8-3.4,3.3-5.3,4.7c-1.9,1.3-4.1,2.3-5.9,3.6
						c4.7-5.2,9.1-10.6,13.3-16.3c0.6-0.8,1.2-1.6,1.8-2.4C301.6,233.7,302.8,232.5,302.8,231.9z"/>
					<path class="st80" d="M299.3,247c1.4-0.9,2.9-1.8,4.2-2.8c3.7-2.8,6.7-6.4,9.1-10.3c-0.4,0.7-0.5,1.8-0.8,2.6
						c-0.3,0.9-0.7,1.8-1.1,2.6c-1.6,3.5-3.9,6.7-6.8,9.2c-3.3,2.8-7.5,4.6-11.5,5.9c-1.1,0.4-2.3,0.7-3.5,0.9
						c-0.6,0.1-1.2,0.3-1.8,0.4c-0.4,0.1-1.2,0-1.6,0.2c1.3-0.8,2.7-1.4,4-2.2c1.9-1.2,3.7-2.6,5.5-3.9
						C296.5,248.7,297.9,247.9,299.3,247z"/>
					<path class="st84" d="M292.4,247.8c3.8-3.7,7.6-7.4,11.8-10.7c5-3.9,10.7-6.9,16.1-10.3c-3.2,1.9-6.2,4.3-8.8,7
						c-2.7,2.7-4.8,5.9-7.3,8.8c-2.8,3.3-6.2,6.2-10.1,8.3c-1.6,0.9-3.3,1.6-5,2.3c-1.4,0.5-3.5,0.8-4.6,1.8
						C287.3,252.6,289.8,250.2,292.4,247.8z"/>
				</g>
			</g>
			<g>
				
					<rect x="315.5" y="237.1" transform="matrix(0.1314 -0.9913 0.9913 0.1314 35.4975 530.3425)" class="st72" width="9.8" height="15.6"/>
				<polygon class="st72" points="313.3,239 312,248.7 306,245.3 306.6,240.8 				"/>
				<g>
					<path class="st44" d="M313.3,245.4l0.4-2.8c0.2-1.5,1.6-2.5,3-2.3l8.6,1.1c1.5,0.2,2.5,1.6,2.3,3l-0.4,2.8
						c-0.2,1.5-1.6,2.5-3,2.3l-8.6-1.1C314.2,248.3,313.1,246.9,313.3,245.4z M316.6,241.1c-1.1-0.1-2,0.6-2.2,1.7l-0.4,2.8
						c-0.1,1.1,0.6,2,1.7,2.2l8.6,1.1c1.1,0.1,2-0.6,2.2-1.7l0.4-2.8c0.1-1.1-0.6-2-1.7-2.2L316.6,241.1z"/>
				</g>
				<g>
					<path class="st44" d="M306.9,241.4c-0.1,0-0.6-0.2-1.4-0.3c0,0,0,0,0,0c0,0-0.1,0.1-0.1,0.1c0,0.1-0.1,0.1-0.1,0.2
						c-0.1,0.1-0.1,0.1-0.2,0.2c-0.1,0.1-0.1,0.1-0.2,0.1c0,0,0,0-0.1,0.1c1.2,0.2,1.9,0.4,1.9,0.4c0.2,0.1,0.4-0.1,0.5-0.3
						C307.2,241.7,307.1,241.4,306.9,241.4z"/>
					<path class="st44" d="M308.6,243c-0.1-0.2-0.4-0.2-0.5-0.1c-1.8,1.1-6.3,0.3-8.4-1.7c0.1,0,0.2,0,0.2,0
						c-0.2-0.2-0.1-0.6,0.1-0.8c-0.4,0-0.8,0-1.2,0c-0.1,0-0.3,0.1-0.3,0.2c-0.1,0.1-0.1,0.3,0,0.4c1.5,2.2,6.1,3.6,8.8,3
						c0.4-0.1,0.8-0.2,1.1-0.5C308.7,243.4,308.7,243.2,308.6,243z"/>
				</g>
			</g>
		</g>
		<g>
			<g>
				<g>
					<path class="st81" d="M249.9,246.9c0-0.7,0-1.4,0.2-2.1c0.1-0.4,0.5-1,0.9-1.2c0.6-0.2,1.1,0.4,1.1,0.9c-0.2-1.2-0.1-2.8,0.3-4
						c0.2-0.6,0.5-1.3,1-1.7c0.6-0.6,1.1-0.7,1.6,0.1c-0.1-0.2,0.2-1,0.2-1.2c0.1-0.5,0.3-0.9,0.5-1.3c0.3-0.6,2.3-3.4,3.1-1.8
						c-0.2-0.3,1-1.5,1.2-1.7c0.5-0.5,1.3-0.8,2-0.7c0.7,0.1,1.4,0.8,1.2,1.6c0.8-0.6,1.9,0.2,2.2,1.1c0.2,0.9-0.2,1.9-0.6,2.8
						c-1,2.2-1.9,4.4-2.7,6.6c-0.6,1.8-2.7,3.3-4.2,4.4c-1.8,1.4-3.7,2.7-5.8,3.7c-1.1,0.5-2.1,1-3.2,1.4c-0.9,0.3-2.2,0.5-3,1
						c1.8-1.2,3.1-3,3.6-5.1C249.8,248.8,249.9,247.8,249.9,246.9z"/>
					<path class="st81" d="M255.3,257.2c0.6,0.4,1.2,0.7,1.9,0.9c0.5,0.1,1.1,0.1,1.5-0.3c0.4-0.4,0.2-1.1-0.3-1.4
						c1,0.7,2.4,1.4,3.6,1.6c0.6,0.1,1.4,0.1,2,0c0.8-0.2,1.1-0.6,0.7-1.4c0.1,0.2,1,0.3,1.2,0.4c0.5,0.1,0.9,0.2,1.4,0.2
						c0.7,0,4.1-0.4,3.1-1.9c0.2,0.3,1.8-0.2,2.1-0.3c0.7-0.2,1.3-0.7,1.5-1.4c0.2-0.7,0-1.6-0.8-1.9c0.9-0.4,0.8-1.8,0-2.4
						c-0.7-0.6-1.7-0.7-2.7-0.8c-2.4-0.2-4.8-0.4-7.1-0.8c-1.9-0.3-4.2,0.9-5.9,1.6c-2.1,0.9-4.1,2-6,3.3c-1,0.7-1.9,1.4-2.8,2.2
						c-0.7,0.6-1.5,1.7-2.3,2.2c1.9-1,4.1-1.3,6.2-0.8C253.6,256.4,254.5,256.7,255.3,257.2z"/>
					<path class="st82" d="M261.2,253.6c-0.8,0.5-1.7,0.9-2.6,1c-0.8,0.1-1.5,0-2.3-0.1c-0.7-0.1-1.5-0.5-2.2-0.4
						c-0.8,0.1-1.6,0.5-2.4,0.8c-2.3,0.8-5.1,1-7.5,1.5c0.9-0.2,2.2-1.5,2.9-2.1c1.5-1.2,3-2.3,4.1-4c0.6-0.9,1.1-1.9,1.5-2.8
						c0.4-0.9,0.9-1.6,2-1.7c-0.2-1.6,0.4-3.2,1.6-4.3c0.4-0.4,1.1-0.8,1.6-0.5c-0.3-0.2,0.8-2.1,1-2.2c0.5-0.6,0.9-1.3,1.6-1.8
						c0.3-0.3,0.7-0.6,1.2-0.5c0.4,0,0.8,0.6,0.6,0.9c0.7-1.3,1.7-2.4,3-3.2c0.6-0.3,1.2-0.6,1.8-0.5c0.6,0.1,1.2,0.8,0.9,1.4
						c0.2-0.6,1.4-1.1,2-1.3c0.8-0.3,1.6-0.5,2.5-0.5c1.8,0,3.4,0.9,4.7,2.2c1.1,1.1,1.5,2.8,0.5,4.1c0.4,1.1,0.2,2.3-0.5,3.2
						c-0.7,0.9-1.8,1.4-2.9,1.4c0.3,1.3-0.1,2.7-1.1,3.6c-1,0.9-2.4,1.3-3.7,0.9c-0.4,1.4-1.3,2.6-2.6,3.3c-1.3,0.7-2.8,0.8-4.2,0.4
						C262.2,252.9,261.7,253.3,261.2,253.6z"/>
				</g>
				<g>
					<path class="st83" d="M247.8,262c2.1-2.3,4.5-4.4,7-6.3c1.1-0.9,5.1-3.6,4.3-5.1c-1-1.8-8,3.7-9.1,4.3
						c-1.2,0.8-2.3,1.6-3.6,2.1c-1.1,0.5-2.3,0.8-3.1,1.7c-0.9,1.1-0.1,3.1,0.9,3.9c0.6,0.5,1.3,0.7,2,0.5
						C246.9,262.9,247.4,262.4,247.8,262z"/>
					<path class="st41" d="M244.9,260.1c-0.5-0.6-1.1-0.9-1.6-0.4c-0.6,0.5-0.3,1.4,0,2.1c0.2,0.4,0.5,0.8,0.9,1
						c0.5,0.2,1.1,0.1,1.4-0.5C245.8,261.7,245.4,260.8,244.9,260.1z"/>
					<path class="st80" d="M267.5,241.8c0.2-0.5,0.4-0.9,0.7-1.4c1-1.9,2.3-3.7,3.7-5.3c1.4-1.7,3-3.1,4.8-4.3
						c0.8-0.6,1.8-1.1,2.8-1.5c1-0.4,2-0.5,3-1c-2.5,1.3-4.6,3.1-6.4,5.2c-2,2.4-4.1,4.7-6.1,7.1c2.5-0.7,4.8-2.1,6.6-3.9
						c-3.2,3.8-7.4,6.3-11.7,8.7c0.6-0.9,1.2-1.6,1.9-2.4C267,242.7,267.3,242.3,267.5,241.8z"/>
					<path class="st80" d="M269.4,231.9c-0.4,4.7-2.4,9.2-5.5,12.8c-1.6,1.8-3.4,3.3-5.3,4.7c-1.9,1.3-4.1,2.3-5.9,3.6
						c4.7-5.2,9.1-10.6,13.3-16.3c0.6-0.8,1.2-1.6,1.8-2.4C268.2,233.7,269.4,232.5,269.4,231.9z"/>
					<path class="st80" d="M266,247c1.4-0.9,2.9-1.8,4.2-2.8c3.7-2.8,6.7-6.4,9.1-10.3c-0.4,0.7-0.5,1.8-0.8,2.6
						c-0.3,0.9-0.7,1.8-1.1,2.6c-1.6,3.5-3.9,6.7-6.8,9.2c-3.3,2.8-7.5,4.6-11.5,5.9c-1.1,0.4-2.3,0.7-3.5,0.9
						c-0.6,0.1-1.2,0.3-1.8,0.4c-0.4,0.1-1.2,0-1.6,0.2c1.3-0.8,2.7-1.4,4-2.2c1.9-1.2,3.7-2.6,5.5-3.9
						C263.1,248.7,264.5,247.9,266,247z"/>
					<path class="st84" d="M259,247.8c3.8-3.7,7.6-7.4,11.8-10.7c5-3.9,10.7-6.9,16.1-10.3c-3.2,1.9-6.2,4.3-8.8,7
						c-2.7,2.7-4.8,5.9-7.3,8.8c-2.8,3.3-6.2,6.2-10.1,8.3c-1.6,0.9-3.3,1.6-5,2.3c-1.4,0.5-3.5,0.8-4.6,1.8
						C253.9,252.6,256.4,250.2,259,247.8z"/>
				</g>
			</g>
			<g>
				
					<rect x="282.1" y="237.1" transform="matrix(0.1317 -0.9913 0.9913 0.1317 6.4462 497.1874)" class="st72" width="9.8" height="15.6"/>
				<polygon class="st72" points="279.9,239 278.6,248.7 272.6,245.3 273.2,240.8 				"/>
				<g>
					<path class="st44" d="M279.9,245.4l0.4-2.8c0.2-1.5,1.6-2.5,3-2.3l8.6,1.1c1.5,0.2,2.5,1.6,2.3,3l-0.4,2.8
						c-0.2,1.5-1.6,2.5-3,2.3l-8.6-1.1C280.8,248.3,279.7,246.9,279.9,245.4z M283.2,241.1c-1.1-0.1-2,0.6-2.2,1.7l-0.4,2.8
						c-0.1,1.1,0.6,2,1.7,2.2l8.6,1.1c1.1,0.1,2-0.6,2.2-1.7l0.4-2.8c0.1-1.1-0.6-2-1.7-2.2L283.2,241.1z"/>
				</g>
				<g>
					<path class="st44" d="M273.6,241.4c-0.1,0-0.6-0.2-1.4-0.3c0,0,0,0,0,0c0,0-0.1,0.1-0.1,0.1c0,0.1-0.1,0.1-0.1,0.2
						c-0.1,0.1-0.1,0.1-0.2,0.2c-0.1,0.1-0.1,0.1-0.2,0.1c0,0,0,0-0.1,0.1c1.2,0.2,1.9,0.4,1.9,0.4c0.2,0.1,0.4-0.1,0.5-0.3
						C273.9,241.7,273.8,241.4,273.6,241.4z"/>
					<path class="st44" d="M275.2,243c-0.1-0.2-0.4-0.2-0.5-0.1c-1.8,1.1-6.3,0.3-8.4-1.7c0.1,0,0.2,0,0.2,0
						c-0.2-0.2-0.1-0.6,0.1-0.8c-0.4,0-0.8,0-1.2,0c-0.1,0-0.3,0.1-0.3,0.2c-0.1,0.1-0.1,0.3,0,0.4c1.5,2.2,6.1,3.6,8.8,3
						c0.4-0.1,0.8-0.2,1.2-0.5C275.3,243.4,275.3,243.2,275.2,243z"/>
				</g>
			</g>
		</g>
		<g>
			<g>
				<path class="st75" d="M175.9,251.6c4.2,0.7,21.7,8,25.5,11.9c3.5-6.5,8.5-3.7,19.4-11.1c10.9-7.4,11.8-13.8,16.7-16.6
					c-5-0.1-23.2-6.7-27.5-10.3c-1.7,5.8-11.4,6.6-16.8,10.9C187.7,240.7,181.3,249.6,175.9,251.6z"/>
				<path class="st61" d="M178,250.5c4.2,0.7,20.5,7.6,24.2,11.4c3.7-3.7,7.6-2.2,18.5-9.7c10.9-7.4,11.5-12.8,15.4-15.7
					c-5-0.1-23.3-5.1-27.6-8.7c-2.3,2.4-10,4.1-15.5,8.4C187.7,240.7,181.3,248.7,178,250.5z"/>
				<path class="st52" d="M224.6,234.6c-5.3,0.9-10.5,2.1-15.6,3.4c-9.6,2.5-19.3,5.1-27.9,10.1c-1.2,1.1-2.2,2-3.1,2.5
					c1.1,0.2,3,0.8,5.2,1.6c9.3-5.3,19.6-8.6,29.9-11.5c6.1-1.7,12.3-3.1,18.5-4.3c0.2,0,0.4-0.1,0.7-0.1c-2.1-0.4-4.6-1-7.3-1.7
					C224.9,234.5,224.8,234.6,224.6,234.6z"/>
				<path class="st85" d="M225.9,240c-1.4,0.7-2.6,1.3-4,1.8c-2.9,1-3.4,2-5.3,4.2c-2.2,2.6-4.9,4.3-7.4,6.6
					c-2.9,2.6-5.1,5.8-7.3,9.1c0.1,0.1,0.2,0.2,0.4,0.3c3.7-3.7,7.6-2.2,18.5-9.7c10.8-7.3,11.5-12.7,15.3-15.6
					C232.7,238.1,229.2,238.3,225.9,240z"/>
				<ellipse class="st41" cx="204.9" cy="241.1" rx="10.1" ry="6.4"/>
			</g>
			<g>
				
					<rect x="180.6" y="219.5" transform="matrix(3.124637e-02 -0.9995 0.9995 3.124637e-02 -47.7387 406.7288)" class="st72" width="10.7" height="17"/>
				<polygon class="st72" points="194.6,222.9 194.3,233.6 201.3,231 201.5,226 				"/>
				<g>
					<path class="st44" d="M190.4,232.6l-9.4-0.3c-1.6-0.1-2.9-1.4-2.9-3l0.1-3c0-1.6,1.4-2.9,3-2.9l9.4,0.3c1.6,0.1,2.9,1.4,2.9,3
						l-0.1,3C193.4,231.4,192.1,232.7,190.4,232.6z M181.3,224.2c-1.2,0-2.1,0.9-2.2,2l-0.1,3c0,1.2,0.9,2.1,2,2.2l9.4,0.3
						c1.2,0,2.1-0.9,2.2-2l0.1-3c0-1.2-0.9-2.1-2-2.2L181.3,224.2z"/>
				</g>
				<g>
					<path class="st45" d="M200.2,229.3c-0.4-0.2-0.8-0.4-1.2-0.7c-0.2-0.2-0.2-0.4,0-0.6c0.2-0.2,0.4-0.2,0.6,0
						c1.7,1.5,6.8,1.4,9.3-0.4c-4.2-0.7-7.3-0.3-7.4-0.3c-0.2,0-0.4-0.1-0.5-0.4c0-0.2,0.1-0.4,0.4-0.5c0.2,0,3.8-0.5,8.5,0.5
						c0.2,0,0.3,0.1,0.3,0.3c0,0.1,0,0.3-0.1,0.4C208.1,229.8,203,230.5,200.2,229.3z"/>
				</g>
			</g>
		</g>
	</g>
</g>
<g>
	<g>
		<g>
			<g>
				<path class="st86" d="M637.6,423.4h-20.2c-4.3,0-7.9-15.5-9.5-17.4l-2.4,19c-1.7,3.5,3.3,6.9,10.2,6.9h20.2
					c5.8,0,10.5,0.6,10.5-2.5v-4.7C644.5,426.3,641.3,423.4,637.6,423.4z"/>
			</g>
			<g>
				<path class="st87" d="M611.1,413.4l-3.3,6.8c1.6,1.9,5.2,3.2,9.5,3.2c0,0,27.2,2.9,29,1.3L611.1,413.4z"/>
			</g>
		</g>
		<g>
			<path class="st88" d="M617.1,418.7l-0.4,0c-10.4-0.2-18.6-8.7-18.4-19.1l2.3-123.7c-1.4-18.1,34.5-84.1,34.5-84.1l3.5,116.6
				l-2.4,92C635.9,410.8,627.4,418.9,617.1,418.7z"/>
		</g>
		<g>
			<path class="st89" d="M608.4,122.1c0,0-4.6,20.2-7.6,41.7c-1.5,10.8,6,75.4,6,75.4h29.7c0,0,4.3-44.2,3.3-56.7
				c-2-26.5-12.3-28.7-16.5-36.2c-1.2-2.1,0.7-20,0.7-20L608.4,122.1z"/>
		</g>
		<g>
			<path class="st90" d="M644,103.8c0.1-0.9,0.2-1.8,0.2-2.7c0-12.8-10.3-23.1-23.1-23.1c-12.8,0-23.1,10.3-23.1,23.1
				c0,1.8,0.2,3.6,0.6,5.3l0,0v0c0.7,3.2,2.2,6.1,4.1,8.6c2.9,5.7,6.8,12.5,9.5,13.8c4.9,2.4,23.8,8.5,28-0.6
				C644.4,119.1,644,103.8,644,103.8L644,103.8z"/>
		</g>
		<g>
			<path class="st91" d="M629.3,95.9c0,0-2.2-1.1-2.9,4c-0.7,5.1-4,11.3-4,11.3s-2.2-6.5-5.2-7.9c-3.1-1.3-4.7,0.4-5.2,3.5
				c-0.5,3.1,0.4,8.1,3.1,10.4c2.7,2.3,2.7,3-1.6,4.8c-4.3,1.8-7.4,2.3-7.4,2.3s-13.4-14.8-13.9-23.1c-0.5-8.3,2-23.5,19.3-26.9
				c17.4-3.4,27.1,4.7,30.8,11.8c3.7,7.1,6.9,11,0,11.2C635.3,97.3,629.3,95.9,629.3,95.9z"/>
		</g>
		<g>
			<path class="st92" d="M596.6,156.3c3.6-16.2,27.8-14.2,36.2,0c13.2,22.3,9.8,20.6,9.5,47.7c-1.5,21.4-4.7,70.7-4.7,70.7h-37
				c0,0-4.7-19.3,0-41.2C601.7,227.9,588,195.2,596.6,156.3z"/>
		</g>
	</g>
	<g>
		<g>
			<path class="st47" d="M594.2,110.5L642,84.8l-2.5-4.7c-7-13-23.4-17.9-36.4-11l-0.5,0.3c-13,7-17.9,23.4-11,36.4L594.2,110.5z"/>
		</g>
		<g>
			<path class="st47" d="M660.6,76.7c0,0,1.5,1.2-2.1,5.1c-3.3,3.5-8.2,4-9.6,4.6c-1.4,0.5-14,2.3-14,2.3l5.2-7.8L660.6,76.7z"/>
		</g>
	</g>
	<g>
		<path class="st90" d="M642,117.8v-14.6l6.6,10.8c0.7,1.9-0.7,3.9-2.8,3.9H642z"/>
	</g>
	<g>
		<g>
			<path class="st47" d="M679.9,223.3L640,198.5c0,0-13.1-31.8-14.8-34.9c-2.4-4.4-6.8-7.4-11.8-8l-0.1,0c0,0-1.4,0.1-2.2,0.2
				c-7.2,0.7-10.4,14-7.1,20.4c10.8,20.4,26.9,42.7,26.9,42.7c2.1,2.2,47.1,18.5,47.1,18.5L679.9,223.3z"/>
		</g>
		<g>
			<path class="st93" d="M677.9,225.1L677.9,225.1c-1.9,3.6-2,7.9-0.3,11.5l0.4,0.7h12.4c12-2.3,19.2-9,19.2-9
				c0-1.2-14.4-3.4-20.5-4.8c-1.2-0.3,4.8-4.7,1.2-9.5c-0.6-0.7-1.6,0.6-2.3,2.2c-2,4.4-4.6,4.9-8.5,7.1
				C678.8,223.9,678.2,224.5,677.9,225.1z"/>
		</g>
	</g>
</g>
<g>
	<g>
		<g>
			<g>
				<g>
					<g>
						<path class="st89" d="M849.3,419.2l-0.8-2.5c0.4,1.4,0.7,3.1,0.8,5C849.4,420.8,849.4,420,849.3,419.2z"/>
					</g>
				</g>
			</g>
			<g>
				<g>
					<g>
						<g>
							<path class="st89" d="M851.5,265.6c-0.1-0.9-20.2,0-20.2,0c-12.4,2-11.6,39.6-9.6,58.7c0.5,5,5.6,20.8,7.8,25.3l0.1,0.2
								c4.7,9.4,7.9,25.6,7.3,36.1l-1.1,17.5c-4.8,5.3-13.9,15.7-20.8,19.3c-0.9,0.5-1.8,0.9-2.7,1.2c1.2,0.7,3.2,1.1,6.6,0.3
								c0.5-0.1,1-0.2,1.5-0.3c7.5-1.6,13.4-2.6,18.9-5.1c5.9-2.7,7.9-6.4,7.9-6.4l-1.7-5.1l4.9-20.3c2.7-11.3,2.7-23-0.1-34.2
								c0-0.1-0.1-0.2-0.1-0.3c-2.7-10.7-3.7-19.8-2.3-24.2L851.5,265.6z"/>
						</g>
					</g>
				</g>
				<g>
					<g>
						<g>
							<path class="st89" d="M847.1,412.3L847.1,412.3l1.4,4.3C847.9,414.1,847.1,412.3,847.1,412.3z"/>
						</g>
					</g>
				</g>
			</g>
			<g>
				<g>
					<g>
						<path class="st46" d="M849.3,421.6c-0.1-1.8-0.4-3.5-0.8-5l-2-6c0,0-1.5,3.3-7.4,6c-5.5,2.5-11.3,5.6-18.8,7.2
							c-0.5,0.1-1,0.2-1.5,0.3c-3.4,0.8-5.4,0.4-6.6-0.3c-0.1,0-0.1,0.1-0.2,0.1l-7.9,2.4c-2,0.7-1.8,3.3,0.2,4
							c6,2.3,10.9,1.6,16.8,1.2c6.3-0.4,8.4-2.7,14.5-5l0.7,4h8.4c0,0,2.1-3.7,3-6C848,424.1,849.4,422.2,849.3,421.6z"/>
					</g>
				</g>
			</g>
		</g>
		<g>
			<g>
				<g>
					<g>
						<path class="st89" d="M810.5,420.3l-0.7-2.5c0.3,1.5,0.6,3.2,0.6,5C810.5,422,810.6,421.2,810.5,420.3z"/>
					</g>
				</g>
			</g>
			<g>
				<g>
					<g>
						<g>
							<path class="st90" d="M846.7,266.9c-0.1-0.9-20.2-0.7-20.2-0.7c-12.5,1.6-25.6,39.2-24.2,58.3c0.4,5,0.7,20.9,2.8,25.5
								l0.1,0.2c4.4,9.5-1.4,25.9-2.4,36.3l-5.9,17.5c-5,5.1-14.4,15.2-21.4,18.6c-0.9,0.5-1.9,0.8-2.7,1.1c1.2,0.7,3.1,1.2,6.6,0.5
								c0.5-0.1,1-0.2,1.5-0.3c7.6-1.4,13.4-2.1,19-4.5c6-2.5,8.1-6.2,8.1-6.2l-1.5-5.2l9.7-20.1c3.1-11.2,11.9-22.9,9.4-34.2
								c0-0.1-0.1-0.2-0.1-0.3c-1.7-8,1.9-16.1,2.7-24.3L846.7,266.9z"/>
						</g>
					</g>
				</g>
				<g>
					<g>
						<g>
							<path class="st89" d="M808,413.4L808,413.4l1.3,4.3C808.7,415.2,808,413.4,808,413.4z"/>
						</g>
					</g>
				</g>
			</g>
			<g>
				<g>
					<g>
						<path class="st46" d="M809.9,422.7c-0.1-1.8-0.3-3.5-0.6-5l-1.8-6.1c0,0-1.7,3.3-7.6,5.8c-5.6,2.4-11.5,5.3-19,6.6
							c-0.5,0.1-1,0.2-1.5,0.3c-3.4,0.7-5.4,0.2-6.6-0.5c-0.1,0-0.1,0-0.2,0.1l-8,2.1c-2,0.6-1.9,3.2,0.1,4
							c5.9,2.5,10.8,1.9,16.8,1.7c6.3-0.2,8.4-2.5,14.7-4.5l0.6,4l8.4,0.3c0,0,2.2-3.6,3.1-5.9C808.5,425.2,809.9,423.3,809.9,422.7
							z"/>
					</g>
				</g>
			</g>
		</g>
		<g>
			<g>
				<g>
					<g>
						<path class="st89" d="M834.6,159.3c5.3-3.7,8.9-6.3,12.8-6.8c1.7-0.2,3.6-0.5,5.2-0.9c-0.3-1.5-0.7-3-1.1-4.5l-10.8-11.2
							l-9,7.5l2.7,9.8l-5.5,7.6C830.3,161.1,832.2,160.9,834.6,159.3z"/>
					</g>
				</g>
			</g>
			<g>
				<g>
					<g>
						<path class="st48" d="M852.8,176.5c1.5-8.3,1.4-16.7-0.2-24.9c-1.6,0.3-4-0.2-5.7,0c-3.8,0.5-12.3,1.2-18.1,9.2l-9.8,13.4
							c-3.4,4.7-4.8,10.7-3.7,16.4l5.9,31.7l-25.7,105.3l76.9,3.6c0,0-13.8-66.1-14-68.8c-2-19-11.3-39-11.3-39
							c-1.6-7.9-1.5-16,0.3-23.8L852.8,176.5z"/>
					</g>
				</g>
			</g>
		</g>
		<g>
			<g>
				<g>
					<path class="st94" d="M857.6,125.4c5.8-11.1-2.1-24.7-13.9-28.8c-11.8-4.1-24.7,2.1-28.8,13.9c-2,5.6-1,19.8,3.3,29.4
						c3.9,8.6,11.6,4.1,14.4,3.5C832.6,143.3,849.2,141.6,857.6,125.4z"/>
				</g>
			</g>
		</g>
		<g>
			<g>
				<g>
					<path class="st91" d="M838.7,92.2c0,0-21.3-2.1-23.9,15.3c-1.7,11.6,16.2,13.8,16.2,13.8l0,0c0,0,1.9-13,7.2-3.9
						c4.5,7.8-2.5,9.8-2.5,9.8s1.9,5.5,3,7c1.8,2.3,3,6.2,7.7,4.2c5.8-2.5,11.6-10.1,13.1-19.6C861.2,109.2,856.8,95.4,838.7,92.2z"
						/>
				</g>
			</g>
		</g>
		<g>
			<g>
				<g>
					<path class="st91" d="M852.6,167.3l9.1,1.7c0,0,5.2-53-3.6-63.1c-8.9-10.1-15.2,21.2-15.2,21.2l-7.1-0.1l-0.4,21.5
						C836.3,158,843.3,165.6,852.6,167.3z"/>
				</g>
			</g>
		</g>
	</g>
	<g>
		<g>
			<path class="st89" d="M843.5,165.7c0,0,8.1,0.6,4.9,10.5c-3.2,9.8-13.1,21.5-13.1,21.5l-19.6,26.4l-37.2,13.2l-10.4,4.8
				c0,0-10.8,2.4-13.2,1.2c-5.7-2.9-8.3-5.9-6.2-7.2c2.7-1.7,9.2-0.8,9.2-0.8l9.6-5.5l-4.6-0.8c0,0-4.9,1.5-6.2,0.5
				c-0.5-0.4,2.6-3.3,5.2-3.9c3.9-0.8,5.2-1.4,7.4-0.5l7.9,2.5l12.5-7.8c4.3-2.7,9.3-4,14.3-3.7l0.1,0l19.1-31
				C823.3,185.1,825.3,164.3,843.5,165.7z"/>
		</g>
	</g>
</g>
</svg>
